<svg width="32" height="31" viewBox="0 0 32 31" fill="none" xmlns="http://www.w3.org/2000/svg">
<circle cx="16.0918" cy="15.4421" r="15.25" fill="#79C7E4"/>
<path d="M9.0918 16.4419L20.9518 16.4419L17.3218 20.8019C17.1521 21.0061 17.0704 21.2694 17.0948 21.5338C17.1192 21.7982 17.2476 22.0421 17.4518 22.2119C17.656 22.3816 17.9193 22.4633 18.1837 22.4389C18.4481 22.4145 18.6921 22.2861 18.8618 22.0819L23.8618 16.0819C23.8954 16.0341 23.9255 15.984 23.9518 15.9319C23.9518 15.8819 23.9518 15.8519 24.0218 15.8019C24.0671 15.6872 24.0909 15.5652 24.0918 15.4419C24.0909 15.3186 24.0671 15.1965 24.0218 15.0819C24.0218 15.0319 24.0218 15.0019 23.9518 14.9519C23.9255 14.8997 23.8954 14.8496 23.8618 14.8019L18.8618 8.80186C18.7678 8.68898 18.65 8.5982 18.517 8.53598C18.3839 8.47376 18.2387 8.44162 18.0918 8.44186C17.8581 8.44141 17.6317 8.52278 17.4518 8.67186C17.3505 8.75581 17.2668 8.85891 17.2055 8.97526C17.1441 9.09161 17.1063 9.21891 17.0943 9.34989C17.0822 9.48087 17.0961 9.61294 17.1351 9.73854C17.1742 9.86415 17.2376 9.98081 17.3218 10.0819L20.9518 14.4419L9.0918 14.4419C8.82658 14.4419 8.57223 14.5472 8.38469 14.7348C8.19715 14.9223 8.0918 15.1766 8.0918 15.4419C8.0918 15.7071 8.19715 15.9614 8.38469 16.149C8.57223 16.3365 8.82658 16.4419 9.0918 16.4419Z" fill="white"/>
</svg>
