<svg width="42" height="41" viewBox="0 0 42 41" fill="none" xmlns="http://www.w3.org/2000/svg">
<rect x="1.18445" y="0.5" width="40" height="40" rx="11.5" fill="white" stroke="#E8ECF4"/>
<path d="M23.842 13.3671C23.75 13.275 23.6408 13.2019 23.5206 13.152C23.4004 13.1021 23.2715 13.0764 23.1413 13.0764C23.0112 13.0764 22.8823 13.1021 22.7621 13.152C22.6418 13.2019 22.5326 13.275 22.4407 13.3671L15.862 19.9459C15.7886 20.0191 15.7303 20.1061 15.6906 20.2019C15.6509 20.2977 15.6304 20.4003 15.6304 20.504C15.6304 20.6077 15.6509 20.7104 15.6906 20.8061C15.7303 20.9019 15.7886 20.9889 15.862 21.0621L22.4407 27.6409C22.8286 28.0288 23.454 28.0288 23.842 27.6409C24.2299 27.253 24.2299 26.6276 23.842 26.2396L18.1103 20.5001L23.8499 14.7605C24.2299 14.3805 24.2299 13.7471 23.842 13.3671Z" fill="#23297A" stroke="#23297A" stroke-width="0.2"/>
</svg>
