<svg width="42" height="42" viewBox="0 0 42 42" fill="none" xmlns="http://www.w3.org/2000/svg">
<rect x="0.982666" y="1.03687" width="40" height="40" rx="11.5" fill="white" stroke="#E8ECF4"/>
<path d="M20.9827 30.951C20.4521 30.9485 19.9439 30.7374 19.5678 30.3636C19.1917 29.9898 18.9779 29.4832 18.9727 28.9532H22.9727C22.9748 29.2203 22.9238 29.4851 22.8227 29.7324C22.6933 30.0288 22.4953 30.2903 22.245 30.4952C21.9946 30.7001 21.699 30.8427 21.3827 30.9111H21.3357C21.2195 30.9353 21.1013 30.9486 20.9827 30.951ZM28.9827 27.9543H12.9827V25.9565L14.9827 24.9575V19.4635C14.93 18.0541 15.2486 16.6556 15.9067 15.4079C16.2305 14.8357 16.6721 14.3387 17.2023 13.9496C17.7325 13.5604 18.3393 13.288 18.9827 13.1503V10.9727H22.9827V13.1503C25.5617 13.7636 26.9827 16.0052 26.9827 19.4635V24.9575L28.9827 25.9565V27.9543Z" fill="#23297A"/>
</svg>
