<svg width="23" height="22" viewBox="0 0 23 22" fill="none" xmlns="http://www.w3.org/2000/svg">
<path d="M22.1921 10.5047L12.1964 0.406739C12.1244 0.333835 12.0389 0.275997 11.9448 0.236534C11.8507 0.197071 11.7498 0.176758 11.6479 0.176758C11.546 0.176758 11.4451 0.197071 11.351 0.236534C11.2569 0.275997 11.1714 0.333835 11.0995 0.406739L1.10369 10.5047C0.81248 10.7991 0.647461 11.199 0.647461 11.6161C0.647461 12.4821 1.34394 13.1862 2.20058 13.1862H3.25379V20.3917C3.25379 20.8259 3.60082 21.1768 4.03035 21.1768H10.0948V15.6813H12.8128V21.1768H19.2655C19.695 21.1768 20.042 20.8259 20.042 20.3917V13.1862H21.0953C21.5078 13.1862 21.9034 13.0218 22.1946 12.725C22.7988 12.1116 22.7988 11.118 22.1921 10.5047Z" fill="#858EA9"/>
</svg>
