<svg width="19" height="21" viewBox="0 0 19 21" fill="none" xmlns="http://www.w3.org/2000/svg">
<path d="M18.9832 5.43953C19.0177 4.60907 18.0722 4.17512 17.1556 3.75563C16.5837 3.49405 15.9918 3.22407 15.8194 2.9224C15.2103 1.87351 14.0091 0.752822 12.466 0.75H12.4488C10.2533 0.75 9.58385 1.8907 9.40866 2.84764C9.38281 2.98554 9.36837 3.13788 9.35695 3.30164C9.35114 4.12625 9.46038 5.68089 10.0264 6.25555C10.1758 6.40488 10.3367 6.47102 10.535 6.46541C11.012 6.44817 11.3712 4.56882 11.3971 2.89354L11.9717 2.90216C11.9573 3.85905 11.8138 6.99122 10.558 7.04012H10.5063C10.1671 7.04012 9.86826 6.91364 9.61831 6.66088C9.48321 6.52298 9.37116 6.3534 9.27635 6.16098C9.19297 7.37064 8.95444 8.73285 8.25049 10.0604C7.83678 10.8449 7.37976 11.6034 6.94021 12.339C5.85981 14.1408 4.92575 15.6982 4.96023 16.9798C4.96885 17.2931 4.9919 17.5804 5.02337 17.8533C4.54351 17.3159 4.46873 16.5028 4.38534 15.5947C4.31058 14.7615 4.233 13.8994 3.8249 13.1465C3.00588 11.638 1.45986 11.6035 1.39393 11.6035L0.310547 11.5921L1.24743 12.1381C1.30495 12.1698 2.62386 12.9658 2.58358 14.9542C2.53467 17.2242 2.92553 18.7127 3.81628 19.6351C4.52322 20.3649 5.52886 20.7299 6.89108 20.75V20.7472H6.92836H6.97426L15.7848 20.7386C16.0864 20.753 17.6094 20.7931 18.1326 20.3104C18.2618 20.1898 18.3338 20.0374 18.3394 19.8737C18.3767 18.5662 16.9257 18.1811 16.348 18.0777C16.2877 17.6065 16.1295 16.4255 15.9313 15.1035C15.7072 13.6208 15.2014 8.46562 15.075 7.16072C18.7276 6.97672 18.9717 5.69788 18.9834 5.43932L18.9832 5.43953ZM17.621 19.6318C17.621 20.2267 16.1814 20.172 16.1814 20.172L13.2044 20.1633L13.1958 19.5484L15.9084 18.6721C16.1669 18.6893 17.621 18.8216 17.621 19.6318L17.621 19.6318ZM15.7877 18.106L13.1872 18.9479L13.1613 17.2698L15.7044 17.5141L15.7877 18.106ZM15.624 16.9278L13.1527 16.6893L13.1441 16.1577L15.3855 15.2295L15.624 16.9278ZM15.3079 14.6433L13.1383 15.5427L13.1124 13.8099L15.2532 14.2438L15.3079 14.6433ZM15.167 13.6405L13.1008 13.221L13.0922 12.6606L15.0232 12.6088L15.167 13.6405Z" fill="#858EA9"/>
</svg>
