<svg width="18" height="23" viewBox="0 0 18 23" fill="none" xmlns="http://www.w3.org/2000/svg">
<path d="M9.03283 12.5081C10.9262 12.5081 12.6407 11.7563 13.8825 10.5405C16.1984 12.0463 17.7255 14.6255 17.7255 17.5542V18.5251C17.7257 19.2516 17.4207 19.954 16.8345 20.3829C14.6896 21.9517 12.029 22.8806 9.14727 22.8806C6.26558 22.8806 3.60512 21.9519 1.46007 20.3829C0.873822 19.9542 0.568848 19.2518 0.568848 18.5254L0.569024 17.5541L0.569376 17.4681C0.598415 14.6321 2.05915 12.1322 4.27687 10.6301C5.51023 11.7933 7.18621 12.5082 9.03282 12.5082L9.03283 12.5081Z" fill="#858EA9"/>
<path d="M3.31396 5.78013C3.31396 2.68353 5.87432 0.173096 9.03273 0.173096C12.1911 0.173096 14.7515 2.68331 14.7515 5.78013C14.7515 8.87659 12.1911 11.3867 9.03273 11.3867C5.87432 11.3867 3.31396 8.8765 3.31396 5.78013Z" fill="#858EA9"/>
</svg>
