<svg width="21" height="21" viewBox="0 0 21 21" fill="none" xmlns="http://www.w3.org/2000/svg">
<path d="M10.6711 19.134C10.6711 19.0537 10.6677 18.6892 10.6593 18.6109C10.5297 17.421 9.4378 16.9019 8.11021 16.9019C6.83961 16.9019 5.78482 17.3436 5.58296 18.4605C5.56067 18.5867 5.54834 18.8562 5.54834 18.9886" stroke="#858EA9" stroke-width="0.726292" stroke-miterlimit="10" stroke-linecap="round" stroke-linejoin="round"/>
<path d="M6.77783 14.3669C6.77783 13.4612 7.37412 12.9321 8.1099 12.9321C8.84568 12.9321 9.44248 13.4614 9.44248 14.3669C9.44248 15.2724 8.84568 16.0063 8.1099 16.0063C7.37412 16.0063 6.77783 15.2724 6.77783 14.3669Z" stroke="#858EA9" stroke-width="0.726292" stroke-miterlimit="10" stroke-linecap="round" stroke-linejoin="round"/>
<path d="M19.7551 2.6704L2.18186 2.66838C1.84681 2.66838 1.5751 2.39683 1.5751 2.06145C1.5751 1.72657 1.84665 1.45504 2.18186 1.45504L17.4617 1.45267C17.8627 1.45267 18.188 1.12759 18.188 0.726335C18.188 0.325262 17.8629 0 17.4617 0H1.69464C0.760445 0 0 0.760445 0 1.69464V16.977C0 17.4607 0.392124 17.8535 0.876436 17.8535H2.73912C3.87494 19.6385 5.86935 20.8262 8.13702 20.8262C10.4048 20.8262 12.3992 19.6386 13.5349 17.8536H19.7555C20.2397 17.8536 20.632 17.461 20.632 16.9772L20.6318 3.54686C20.6318 3.06253 20.2397 2.67025 19.7554 2.67025L19.7551 2.6704ZM8.13659 19.6155C5.2779 19.6155 2.95225 17.2901 2.95225 14.4316C2.95225 14.2164 2.96576 13.9994 2.99227 13.7867C3.3128 11.1988 5.52452 9.24732 8.13684 9.24732C8.80594 9.24732 9.45658 9.3728 10.0709 9.61969C12.0452 10.4137 13.3211 12.3026 13.3211 14.4314C13.3209 17.2896 10.9954 19.6153 8.13676 19.6153L8.13659 19.6155ZM19.2908 8.59228H14.5435C13.6461 8.59228 12.9186 7.86495 12.9186 6.96755C12.9186 6.0698 13.6461 5.34229 14.5435 5.34229H19.2908V8.59228ZM14.0075 6.96755C14.0075 7.35207 14.319 7.66396 14.7039 7.66396C15.0887 7.66396 15.4003 7.35188 15.4003 6.96755C15.4003 6.58268 15.0887 6.27113 14.7039 6.27113C14.319 6.27113 14.0075 6.5827 14.0075 6.96755Z" fill="#858EA9"/>
</svg>
