<svg width="21" height="21" viewBox="0 0 21 21" fill="none" xmlns="http://www.w3.org/2000/svg">
<path d="M0 5C0 2.23858 2.23858 0 5 0H16C18.7614 0 21 2.23858 21 5V16C21 18.7614 18.7614 21 16 21H5C2.23858 21 0 18.7614 0 16V5Z" fill="#79C7E4" fill-opacity="0.3"/>
<path d="M16.058 15.0055V8.72954C16.0526 8.61955 15.9684 8.52587 15.8544 8.52587H4.67815C4.52607 8.52587 4.374 8.52315 4.22329 8.52587H4.20428C4.09429 8.52587 4.0006 8.61955 4.0006 8.72954V15.5038C4.0006 15.5745 3.99925 15.6464 4.0006 15.717C4.00603 16.0157 4.23958 16.2466 4.5383 16.2493C4.70803 16.2507 4.87912 16.2493 5.04883 16.2493H15.3642H15.5245C15.8232 16.2466 16.0567 16.0117 16.0594 15.7143C16.0608 15.4781 16.0581 15.2418 16.0581 15.0055L16.058 15.0055ZM12.7965 10.8124C12.7938 10.8138 12.7925 10.8165 12.7911 10.8179C12.6567 10.9604 12.5127 11.0962 12.3742 11.2347L11.5188 12.0901C11.1902 12.4187 10.863 12.746 10.5344 13.0746C10.2601 13.3488 9.98856 13.6218 9.71562 13.8933C9.60156 14.0074 9.48886 14.1201 9.37479 14.2342C9.27024 14.3387 9.09373 14.3374 8.99051 14.2342L7.26337 12.507C7.1561 12.3998 7.16425 12.2314 7.26337 12.1227C7.36249 12.0141 7.54716 12.0223 7.64764 12.1227C7.71961 12.1947 7.79022 12.2653 7.86218 12.3373C8.17177 12.6469 8.48136 12.9565 8.78959 13.266L9.18064 13.6571C9.25804 13.581 9.3368 13.505 9.41419 13.429C9.69932 13.1438 9.98448 12.8587 10.2696 12.5735C10.5982 12.245 10.9254 11.9163 11.254 11.5891C11.527 11.3162 11.7999 11.0433 12.0715 10.7717C12.1855 10.6577 12.2982 10.545 12.4123 10.4309C12.5195 10.3236 12.6879 10.3318 12.7966 10.4309C12.9038 10.5286 12.897 10.7119 12.7966 10.8124L12.7965 10.8124Z" fill="#79C7E4"/>
<path d="M16.0581 5.68268C16.0431 5.39618 15.8191 5.17622 15.5312 5.16805H15.4959H13.8176V4.40766C13.8176 4.19448 13.6303 3.99081 13.4103 4.00032C13.189 4.00983 13.003 4.17956 13.003 4.40766V5.16805H7.0557V4.40766C7.0557 4.19448 6.86832 3.99081 6.64836 4.00032C6.42703 4.00983 6.24101 4.17956 6.24101 4.40766V5.16805H4.62383C4.53557 5.16805 4.45003 5.16533 4.3645 5.19385C4.14181 5.26989 4.00194 5.47491 4.0006 5.70711C3.99925 5.77772 4.0006 5.84832 4.0006 5.91893V7.77916C4.0006 7.88914 4.09429 7.98283 4.20428 7.98283H15.3805C15.5326 7.98283 15.6847 7.98555 15.8354 7.98283H15.8544C15.9644 7.98283 16.058 7.88914 16.058 7.77916V5.69624V5.68266L16.0581 5.68268Z" fill="#79C7E4"/>
</svg>
