<svg width="17" height="15" viewBox="0 0 17 15" fill="none" xmlns="http://www.w3.org/2000/svg">
<path d="M15.1113 2.61137H12.496L11.8729 0.865212C11.8298 0.745727 11.751 0.642446 11.647 0.569476C11.5431 0.496507 11.4191 0.457407 11.2921 0.45752H5.39212C5.1325 0.45752 4.89981 0.620981 4.81327 0.865212L4.18827 2.61137H1.57289C0.722885 2.61137 0.0344238 3.29983 0.0344238 4.14983V12.9191C0.0344238 13.7691 0.722885 14.4575 1.57289 14.4575H15.1113C15.9613 14.4575 16.6498 13.7691 16.6498 12.9191V4.14983C16.6498 3.29983 15.9613 2.61137 15.1113 2.61137ZM8.34212 11.3806C6.64212 11.3806 5.26519 10.0037 5.26519 8.30367C5.26519 6.60367 6.64212 5.22675 8.34212 5.22675C10.0421 5.22675 11.419 6.60367 11.419 8.30367C11.419 10.0037 10.0421 11.3806 8.34212 11.3806ZM6.49596 8.30367C6.49596 8.7933 6.69047 9.26288 7.03669 9.6091C7.38291 9.95532 7.85249 10.1498 8.34212 10.1498C8.83175 10.1498 9.30132 9.95532 9.64754 9.6091C9.99377 9.26288 10.1883 8.7933 10.1883 8.30367C10.1883 7.81404 9.99377 7.34447 9.64754 6.99825C9.30132 6.65202 8.83175 6.45752 8.34212 6.45752C7.85249 6.45752 7.38291 6.65202 7.03669 6.99825C6.69047 7.34447 6.49596 7.81404 6.49596 8.30367Z" fill="white"/>
</svg>
