<svg width="28" height="21" viewBox="0 0 28 21" fill="none" xmlns="http://www.w3.org/2000/svg">
<path d="M6.5415 12.9612C3.36491 13.7996 1.36488 15.8302 0.716306 18.6823C0.527584 19.4983 0.820032 19.7365 1.18323 19.8493C3.67998 20.6244 8.30111 20.8996 10.1146 20.8996C11.9282 20.8996 16.5493 20.6244 19.0461 19.8493C19.4093 19.7365 19.7017 19.4983 19.513 18.6823C18.8644 15.8304 16.8641 13.7997 13.6878 12.9612L10.4042 15.7335C10.237 15.8747 9.99345 15.8747 9.82623 15.7335L6.5415 12.9612Z" fill="#10036C"/>
<path fill-rule="evenodd" clip-rule="evenodd" d="M10.1146 0.909668C7.352 0.909668 5.12793 3.17536 5.12793 5.98963V6.33308C5.12793 9.14733 7.352 11.413 10.1146 11.413C12.8773 11.413 15.1013 9.14733 15.1013 6.33308V5.98963C15.1013 3.17536 12.8773 0.909668 10.1146 0.909668Z" fill="#10036C"/>
<path fill-rule="evenodd" clip-rule="evenodd" d="M22.6004 4.53564C21.9704 4.53559 21.3467 4.6606 20.7647 4.90353C20.1827 5.14647 19.6539 5.50258 19.2085 5.95153C18.763 6.40048 18.4097 6.93348 18.1686 7.52009C17.9275 8.10669 17.8034 8.73542 17.8033 9.37038C17.8037 9.48853 17.8084 9.60663 17.8173 9.72443L16.4023 10.9274V11.6691H18.3854C18.7962 12.4352 19.4048 13.0754 20.1467 13.5218C20.8886 13.9681 21.7363 14.2042 22.6004 14.2051C23.8724 14.205 25.0924 13.6957 25.9918 12.789C26.8913 11.8823 27.3967 10.6526 27.3967 9.37038C27.3967 8.08814 26.8913 6.85845 25.9918 5.95177C25.0924 5.04509 23.8724 4.5357 22.6004 4.53564ZM22.6004 6.56543C23.0472 6.56543 23.4093 6.93045 23.4093 7.38083C23.4093 7.8312 23.0472 8.19623 22.6004 8.19623C22.1536 8.19623 21.7914 7.8312 21.7914 7.38083C21.7914 6.93045 22.1536 6.56543 22.6004 6.56543ZM21.4302 8.72865H22.8219C23.0691 8.72865 23.2683 8.92935 23.2683 9.1786V11.0622H23.7698V12.1753H21.4302V11.0622H21.9318V9.58429L21.4302 9.35898V8.72865Z" fill="#10036C"/>
</svg>
