<svg width="21" height="21" viewBox="0 0 21 21" fill="none" xmlns="http://www.w3.org/2000/svg">
<path d="M20.6472 16.6871C20.6472 16.9427 20.6 17.2763 20.5053 17.688C20.4106 18.0998 20.3112 18.424 20.2072 18.6606C20.0085 19.1339 19.431 19.6355 18.4751 20.1656C17.5854 20.6483 16.7052 20.8897 15.8344 20.8897C15.5788 20.8897 15.3303 20.8731 15.0891 20.84C14.8477 20.8068 14.5756 20.7477 14.2726 20.6625C13.9698 20.5773 13.745 20.5087 13.5983 20.4567C13.4516 20.4047 13.1889 20.3076 12.8103 20.1657C12.4318 20.0237 12.1999 19.9385 12.1147 19.9101C11.1872 19.5788 10.3589 19.186 9.63016 18.7317C8.41869 17.984 7.16697 16.9642 5.8749 15.6721C4.58287 14.38 3.56299 13.1282 2.81519 11.9169C2.36088 11.188 1.96812 10.3599 1.63678 9.43234C1.60834 9.34714 1.52314 9.11525 1.38119 8.73669C1.23924 8.35812 1.14219 8.0954 1.09018 7.94873C1.03817 7.80204 0.96957 7.57727 0.884373 7.27439C0.799177 6.9715 0.740053 6.69935 0.706866 6.45798C0.673819 6.21661 0.657227 5.96812 0.657227 5.71253C0.657227 4.84172 0.898595 3.96145 1.38133 3.07182C1.91135 2.11584 2.41302 1.53856 2.88628 1.33973C3.12277 1.23571 3.44697 1.13629 3.85872 1.04161C4.27048 0.946931 4.60403 0.899658 4.85961 0.899658C4.99208 0.899658 5.0915 0.913881 5.15773 0.942187C5.32813 0.998937 5.57899 1.35869 5.91014 2.02118C6.0143 2.20106 6.15625 2.4565 6.33614 2.78783C6.51602 3.11913 6.68167 3.41962 6.83311 3.6893C6.98454 3.95912 7.13123 4.21218 7.27317 4.44882C7.30162 4.4866 7.38444 4.60499 7.52165 4.80369C7.65886 5.00239 7.76065 5.1704 7.82688 5.30775C7.89312 5.44496 7.9263 5.57994 7.9263 5.71241C7.9263 5.90177 7.79147 6.13841 7.52165 6.4223C7.25183 6.7062 6.95847 6.96653 6.64138 7.20316C6.32429 7.43979 6.0309 7.69063 5.76111 7.95557C5.49129 8.2205 5.35645 8.43829 5.35645 8.6087C5.35645 8.6939 5.38016 8.80043 5.42743 8.92815C5.4747 9.05588 5.51499 9.15293 5.54804 9.21916C5.58123 9.2854 5.64746 9.39904 5.74674 9.55995C5.84616 9.72086 5.90054 9.8108 5.91002 9.82977C6.62938 11.1264 7.45278 12.2386 8.38032 13.1661C9.30785 14.0937 10.42 14.9172 11.7167 15.6364C11.7356 15.6459 11.8254 15.7003 11.9865 15.7997C12.1474 15.8991 12.2609 15.9654 12.3273 15.9984C12.3935 16.0316 12.4906 16.0717 12.6183 16.119C12.746 16.1664 12.8525 16.19 12.9377 16.19C13.1081 16.19 13.3258 16.0552 13.5909 15.7853C13.8559 15.5155 14.1068 15.2222 14.3433 14.9051C14.5799 14.588 14.8402 14.2946 15.1241 14.0248C15.408 13.755 15.6447 13.6201 15.834 13.6201C15.9665 13.6201 16.1015 13.6533 16.2387 13.7196C16.3759 13.7858 16.5439 13.8876 16.7428 14.0248C16.9415 14.162 17.0598 14.2448 17.0976 14.2733C17.3342 14.4152 17.5875 14.5619 17.8571 14.7133C18.1269 14.8648 18.4275 15.0304 18.7586 15.2103C19.0899 15.3902 19.3454 15.5321 19.5253 15.6363C20.1879 15.9676 20.5475 16.2185 20.6043 16.3887C20.6327 16.4549 20.6468 16.5544 20.6468 16.6868L20.6472 16.6871Z" fill="#10036C"/>
</svg>
