<svg width="21" height="20" viewBox="0 0 21 20" fill="none" xmlns="http://www.w3.org/2000/svg">
<path d="M20.15 10.274L11.1062 1.13777C11.0411 1.07181 10.9638 1.01948 10.8786 0.983771C10.7935 0.948066 10.7022 0.929688 10.61 0.929688C10.5178 0.929688 10.4266 0.948066 10.3414 0.983771C10.2563 1.01948 10.1789 1.07181 10.1138 1.13777L1.07001 10.274C0.806529 10.5404 0.657227 10.9022 0.657227 11.2795C0.657227 12.0631 1.28737 12.7001 2.06243 12.7001H3.01533V19.2194C3.01533 19.6123 3.32931 19.9297 3.71794 19.9297H9.20482V14.9576H11.6639V19.9297H17.5021C17.8907 19.9297 18.2047 19.6123 18.2047 19.2194V12.7001H19.1576C19.5309 12.7001 19.8888 12.5514 20.1522 12.2828C20.6989 11.7279 20.6989 10.8289 20.15 10.274Z" fill="#10036C"/>
</svg>
