<svg width="21" height="21" viewBox="0 0 21 21" fill="none" xmlns="http://www.w3.org/2000/svg">
<path d="M20.5914 1.89202V17.3418C20.5914 17.4583 20.5275 17.5817 20.4224 17.6388C20.1734 17.7713 19.9221 17.9038 19.6731 18.034C18.5902 18.6051 17.5051 19.1785 16.4223 19.7519C15.737 20.1128 15.0539 20.4761 14.3686 20.837C14.1424 20.9581 13.8523 20.8096 13.8523 20.54C13.8523 20.5309 13.8523 20.5217 13.8523 20.5126C13.8477 20.3047 13.8523 20.0946 13.8523 19.8844V18.0271H7.34159C6.96922 18.0271 6.65625 17.7119 6.65625 17.3418V12.4096C6.65625 12.0259 6.9715 11.7403 7.34159 11.7243C7.71167 11.7083 8.02692 12.051 8.02692 12.4096V16.6564H13.8523V4.43461C13.8523 4.31811 13.9163 4.19475 14.0213 4.13764C14.2703 4.00514 14.5216 3.87264 14.7706 3.74242C15.7027 3.24898 16.6348 2.75782 17.5691 2.26438H8.02692V6.07714C8.02692 6.46093 7.71167 6.74648 7.34159 6.76247C6.9715 6.77846 6.65625 6.4358 6.65625 6.07714V1.57905C6.65625 1.20668 6.9715 0.89371 7.34159 0.89371C7.35072 0.89371 7.35758 0.89371 7.36672 0.89371C7.94697 0.884572 8.5295 0.89371 9.11204 0.89371H20.2716C20.3379 0.895994 20.3972 0.921123 20.4498 0.959959C20.4521 0.962243 20.4566 0.964528 20.4589 0.966812C20.4932 0.991941 20.5229 1.02392 20.5457 1.06504C20.5594 1.08789 20.5709 1.1153 20.5777 1.14043C20.5777 1.14272 20.58 1.145 20.58 1.14728C20.5891 1.17698 20.5937 1.20668 20.5937 1.23638C20.5937 1.24552 20.5937 1.25465 20.5937 1.26379C20.596 1.47168 20.5914 1.68185 20.5914 1.89202Z" fill="#10036C"/>
<path d="M9.35472 8.45305V10.1253C9.35472 10.3103 9.19709 10.4679 9.01205 10.4679H5.47115V12.4486C5.47115 12.6839 5.1696 12.9077 4.95486 12.7455C4.78581 12.6153 4.61447 12.4851 4.44542 12.3572C3.70298 11.7906 2.96053 11.2218 2.21808 10.6553C1.75205 10.2989 1.28602 9.94251 0.819994 9.58614C0.602971 9.41937 0.602971 9.16123 0.819994 8.99446C0.989044 8.86425 1.16038 8.73404 1.32943 8.60611C2.07188 8.03956 2.81432 7.47073 3.55677 6.90419C4.0228 6.54781 4.48883 6.19144 4.95486 5.83506C5.1696 5.67058 5.47115 5.89446 5.47115 6.13204V8.11266H9.01205C9.19709 8.10124 9.35472 8.27258 9.35472 8.45305Z" fill="#10036C"/>
</svg>
