<svg width="16" height="20" viewBox="0 0 16 20" fill="none" xmlns="http://www.w3.org/2000/svg">
<path d="M7.73927 11.2509C9.32347 11.2509 10.7581 10.6217 11.7971 9.60449C13.7349 10.8644 15.0127 13.0225 15.0127 15.473V16.2854C15.0128 16.8933 14.7576 17.481 14.2671 17.8399C12.4725 19.1525 10.2462 19.9298 7.83503 19.9298C5.42384 19.9298 3.19776 19.1527 1.40294 17.8399C0.912407 17.4812 0.657227 16.8935 0.657227 16.2857L0.657374 15.473L0.657668 15.4009C0.681966 13.028 1.9042 10.9363 3.75983 9.67947C4.79182 10.6527 6.19416 11.2509 7.73926 11.2509L7.73927 11.2509Z" fill="#10036C"/>
<path d="M2.9541 5.62125C2.9541 3.03024 5.09642 0.929688 7.73915 0.929688C10.3819 0.929688 12.5242 3.03005 12.5242 5.62125C12.5242 8.21214 10.3819 10.3124 7.73915 10.3124C5.09642 10.3124 2.9541 8.21206 2.9541 5.62125Z" fill="#10036C"/>
</svg>
