<svg width="21" height="21" viewBox="0 0 21 21" fill="none" xmlns="http://www.w3.org/2000/svg">
<path d="M17.4174 15.2766C17.4174 15.6186 17.1401 15.896 16.7981 15.896C16.4561 15.896 16.1787 15.6186 16.1787 15.2766C16.1787 14.9346 16.4561 14.6572 16.7981 14.6572C17.1401 14.6572 17.4174 14.9346 17.4174 15.2766Z" fill="#10036C"/>
<path d="M19.1843 13.709H14.4095C14.3212 13.709 14.249 13.7811 14.249 13.8695V16.8111C14.249 16.8994 14.3212 16.9716 14.4095 16.9716H16.5786V16.3107C16.1006 16.2097 15.7406 15.7845 15.7406 15.2766C15.7406 14.694 16.2147 14.2199 16.7974 14.2199C17.38 14.2199 17.8541 14.694 17.8541 15.2766C17.8541 15.7845 17.4941 16.2097 17.016 16.3107V16.9716H19.1843C19.2731 16.9716 19.3457 16.8994 19.3457 16.8111V13.8695C19.3457 13.7811 19.2731 13.709 19.1843 13.709H19.1843Z" fill="#10036C"/>
<path d="M18.3451 11.9996C18.3451 11.1458 17.651 10.4512 16.798 10.4512C15.9446 10.4512 15.25 11.1458 15.25 11.9996V13.2716H18.3451V11.9996Z" fill="#10036C"/>
<path d="M20.7643 0.929781H5.22754V18.6274H16.3945C16.5151 18.6274 16.6132 18.7254 16.6132 18.8462C16.6132 19.4026 16.828 19.924 17.2186 20.3141C17.6126 20.7039 18.1345 20.919 18.6865 20.919C19.832 20.919 20.7642 19.989 20.7642 18.846V0.929688L20.7643 0.929781ZM7.30252 3.23584H18.9131C19.0338 3.23584 19.1319 3.33379 19.1319 3.45461C19.1319 3.57529 19.0339 3.67338 18.9131 3.67338H7.30252C7.18185 3.67338 7.08375 3.57544 7.08375 3.45461C7.08375 3.33394 7.18138 3.23584 7.30252 3.23584ZM7.30252 5.39592H16.3027C16.4233 5.39592 16.5214 5.49386 16.5214 5.61469C16.5214 5.73536 16.4235 5.83346 16.3027 5.83346L7.30252 5.83331C7.18185 5.83331 7.08375 5.73537 7.08375 5.61454C7.08375 5.49387 7.18138 5.39592 7.30252 5.39592V5.39592ZM7.30252 7.55584H18.6877C18.8084 7.55584 18.9065 7.65379 18.9065 7.77461C18.9065 7.89528 18.8086 7.99338 18.6877 7.99338L7.30252 7.99323C7.18185 7.99323 7.08375 7.89529 7.08375 7.77446C7.08375 7.65379 7.18138 7.55584 7.30252 7.55584ZM7.30252 9.71619H14.4581C14.5788 9.71619 14.6769 9.81413 14.6769 9.93496C14.6769 10.0556 14.5789 10.1537 14.4581 10.1537L7.30252 10.1536C7.18185 10.1536 7.08375 10.0556 7.08375 9.93481C7.08375 9.81414 7.18138 9.71619 7.30252 9.71619ZM11.9375 12.314H7.30252C7.18185 12.314 7.08375 12.216 7.08375 12.0952C7.08375 11.9745 7.18169 11.8764 7.30252 11.8764H11.9379C12.0586 11.8764 12.1567 11.9744 12.1567 12.0952C12.1565 12.216 12.0586 12.314 11.9378 12.314H11.9375ZM19.7832 16.8111C19.7832 17.1409 19.5147 17.409 19.1844 17.409H14.4096C14.0798 17.409 13.8117 17.1408 13.8117 16.8111V13.8695C13.8117 13.5397 14.0799 13.2716 14.4096 13.2716H14.8121V11.9996C14.8121 10.9047 15.7027 10.0138 16.7975 10.0138C17.8919 10.0138 18.7819 10.9047 18.7819 11.9996V13.2716H19.1844C19.5147 13.2716 19.7832 13.5398 19.7832 13.8695L19.7832 16.8111Z" fill="#10036C"/>
<path d="M16.9102 20.6249C16.4885 20.2032 16.2474 19.6548 16.1971 19.0654H0.657227C0.76829 20.1046 1.6423 20.9196 2.71264 20.9196L17.2718 20.9198C17.1446 20.8327 17.0226 20.736 16.9101 20.6249L16.9102 20.6249Z" fill="#10036C"/>
</svg>
