<svg width="21" height="21" viewBox="0 0 21 21" fill="none" xmlns="http://www.w3.org/2000/svg">
<path d="M16.6492 12.9137C15.0166 12.9137 13.6106 13.8998 12.991 15.3058L8.24673 12.6671C8.50657 12.134 8.65323 11.541 8.65323 10.9147C8.65323 9.94851 8.30668 9.05566 7.72706 8.36271L11.7449 5.85055C12.318 6.87667 13.3975 7.58302 14.6501 7.58302C16.4892 7.58302 17.9818 6.09047 17.9818 4.25135C17.9818 2.41223 16.4892 0.919678 14.6501 0.919678C12.811 0.919678 11.3185 2.41223 11.3185 4.25135C11.3185 4.34461 11.3384 4.43786 11.3451 4.53127L6.66094 7.46314L5.32157 8.24934L6.29312 7.27779C5.79204 7.04933 5.24157 6.91666 4.65523 6.91666C2.44963 6.91666 0.657227 8.70906 0.657227 10.9147C0.657227 13.1203 2.44963 14.9127 4.65523 14.9127C5.74798 14.9127 6.74078 14.4728 7.46724 13.7533L12.6646 16.6451C12.658 16.7317 12.6513 16.8184 12.6513 16.9117C12.6513 19.1173 14.4437 20.9097 16.6493 20.9097C18.8549 20.9097 20.6473 19.1173 20.6473 16.9117C20.6473 14.7061 18.8549 12.9137 16.6493 12.9137L16.6492 12.9137Z" fill="#10036C"/>
</svg>
