<svg width="17" height="21" viewBox="0 0 17 21" fill="none" xmlns="http://www.w3.org/2000/svg">
<path d="M13.9073 4.29992L10.7055 1.09811C10.6633 1.05594 10.6213 1.03493 10.5791 1.01392V4.4263H13.9915C13.9705 4.38413 13.9283 4.34196 13.9073 4.29993L13.9073 4.29992Z" fill="#10036C"/>
<path d="M14.0752 12.9574V5.62703H9.96766C9.63059 5.62703 9.37785 5.35315 9.37785 5.03723V0.929688H1.24703C0.909965 0.929688 0.657227 1.20357 0.657227 1.51949V17.5705C0.657227 17.9076 0.931108 18.1603 1.24703 18.1603H8.59847C9.16725 19.7611 10.7049 20.9197 12.4954 20.9197C14.7703 20.9197 16.645 19.066 16.645 16.77C16.6449 15.064 15.5705 13.5893 14.075 12.9574L14.0752 12.9574ZM3.96432 4.42636H6.89226C7.22933 4.42636 7.48207 4.70025 7.48207 5.01617C7.48207 5.35323 7.20818 5.60597 6.89226 5.60597H3.96432C3.62726 5.60597 3.37452 5.33208 3.37452 5.01617C3.37452 4.70011 3.6484 4.42636 3.96432 4.42636ZM3.96432 7.62803H10.747C11.0841 7.62803 11.3368 7.90191 11.3368 8.21783C11.3368 8.55489 11.063 8.80763 10.747 8.80763L3.96432 8.80778C3.62726 8.80778 3.37452 8.5339 3.37452 8.21798C3.37452 7.90192 3.6484 7.62802 3.96432 7.62802V7.62803ZM3.96432 10.8298H10.747C11.0841 10.8298 11.3368 11.1037 11.3368 11.4196C11.3368 11.7355 11.063 12.0094 10.747 12.0094H3.96432C3.62726 12.0094 3.37452 11.7356 3.37452 11.4196C3.37452 11.1037 3.6484 10.8298 3.96432 10.8298ZM7.62955 15.2112H3.96432C3.62726 15.2112 3.37452 14.9373 3.37452 14.6214C3.37452 14.3055 3.6484 14.0316 3.96432 14.0316H7.62955C7.96662 14.0316 8.21935 14.3055 8.21935 14.6214C8.21935 14.9373 7.96648 15.2112 7.62955 15.2112ZM12.4954 19.74C10.8734 19.74 9.54648 18.413 9.54648 16.7911C9.54648 15.1691 10.8736 13.8422 12.4954 13.8422C14.1174 13.8422 15.4443 15.1693 15.4443 16.7911C15.4443 18.4131 14.1174 19.74 12.4954 19.74Z" fill="#10036C"/>
<path d="M13.2957 15.6325L12.0108 16.9175L11.5895 16.4962C11.3578 16.2645 10.9787 16.2645 10.747 16.4962C10.5153 16.7279 10.5153 17.107 10.747 17.3387L11.6107 18.2024C11.7371 18.3287 11.8846 18.3709 12.0319 18.3709C12.1795 18.3709 12.3479 18.3077 12.4532 18.2024L14.1805 16.475C14.4123 16.2433 14.4123 15.8642 14.1805 15.6325C13.9065 15.4008 13.5274 15.4008 13.2957 15.6325H13.2957Z" fill="#10036C"/>
</svg>
