<svg width="41" height="41" viewBox="0 0 41 41" fill="none" xmlns="http://www.w3.org/2000/svg">
<rect x="0.48584" y="0.126465" width="40.07" height="40.07" rx="9" fill="#2C62FF"/>
<path d="M13.7537 10.6877V8.88321C13.7537 8.56077 13.5818 8.26291 13.3026 8.1018C13.0235 7.94068 12.6795 7.94068 12.4004 8.1018C12.1212 8.26291 11.9492 8.56078 11.9492 8.88321V10.6877C11.9492 11.0102 12.1212 11.308 12.4004 11.4691C12.6795 11.6303 13.0235 11.6303 13.3026 11.4691C13.5817 11.308 13.7537 11.0102 13.7537 10.6877Z" fill="white"/>
<path d="M26.3854 11.59C26.6247 11.59 26.8543 11.4949 27.0234 11.3258C27.1926 11.1566 27.2877 10.927 27.2877 10.6877V8.88321C27.2877 8.56077 27.1157 8.26291 26.8365 8.1018C26.5574 7.94068 26.2134 7.94068 25.9343 8.1018C25.6552 8.26291 25.4832 8.56078 25.4832 8.88321V10.6877C25.4832 10.927 25.5782 11.1566 25.7474 11.3258C25.9166 11.4949 26.1462 11.59 26.3854 11.59Z" fill="white"/>
<path d="M28.641 32.342C29.7179 32.342 30.7506 31.9143 31.5119 31.1528C32.2735 30.3915 32.7012 29.3588 32.7012 28.2819C32.7012 27.205 32.2734 26.1722 31.5119 25.4109C30.7506 24.6494 29.7179 24.2217 28.641 24.2217C27.5641 24.2217 26.5313 24.6495 25.77 25.4109C25.0085 26.1722 24.5808 27.205 24.5808 28.2819C24.5808 29.3588 25.0086 30.3915 25.77 31.1528C26.5313 31.9143 27.5641 32.342 28.641 32.342ZM26.3853 27.8307H28.1899V25.5751C28.1899 25.3259 28.3919 25.1239 28.641 25.1239C28.8901 25.1239 29.0921 25.3259 29.0921 25.5751V28.2819C29.0921 28.4015 29.0446 28.5163 28.96 28.6009C28.8754 28.6855 28.7606 28.733 28.641 28.733H26.3853C26.1362 28.733 25.9342 28.531 25.9342 28.2819C25.9342 28.0327 26.1362 27.8307 26.3853 27.8307Z" fill="white"/>
<path d="M9.24259 9.7854C9.00334 9.7854 8.77374 9.88046 8.60457 10.0496C8.43539 10.2188 8.34033 10.4484 8.34033 10.6877V13.3945H30.8969V10.6877C30.8969 10.4484 30.8018 10.2188 30.6327 10.0496C30.4635 9.88046 30.2339 9.7854 29.9946 9.7854H28.1901V10.6877C28.1901 11.3323 27.8461 11.9281 27.2879 12.2505C26.7296 12.5727 26.0416 12.5727 25.4833 12.2505C24.9251 11.928 24.5811 11.3323 24.5811 10.6877V9.7854H14.6562V10.6877C14.6562 11.3323 14.3122 11.9281 13.7539 12.2505C13.1956 12.5727 12.5077 12.5727 11.9494 12.2505C11.3911 11.928 11.0471 11.3323 11.0471 10.6877V9.7854H9.24259Z" fill="white"/>
<path d="M27.7388 20.6125H28.641V21.5148H27.7388V20.6125Z" fill="white"/>
<path d="M24.1299 16.5525H25.0321V17.4548H24.1299V16.5525Z" fill="white"/>
<path d="M24.1299 20.6125H25.0321V21.5148H24.1299V20.6125Z" fill="white"/>
<path d="M28.6412 23.3195C29.4259 23.3193 30.1993 23.5064 30.8969 23.8653V14.2966H8.34033V27.8306C8.34033 28.0698 8.43539 28.2994 8.60457 28.4686C8.77374 28.6378 9.00334 28.7328 9.24259 28.7328H23.7015V28.2817C23.7015 26.9694 24.2213 25.7107 25.1469 24.7806C26.0727 23.8508 27.329 23.3253 28.6414 23.3193L28.6412 23.3195ZM26.8367 16.1014C26.8367 15.8522 27.0387 15.6502 27.2879 15.6502H29.0924C29.212 15.6502 29.3268 15.6978 29.4114 15.7823C29.496 15.8669 29.5435 15.9817 29.5435 16.1014V17.9059C29.5435 18.0255 29.496 18.1403 29.4114 18.2249C29.3268 18.3095 29.212 18.357 29.0924 18.357H27.2879C27.0387 18.357 26.8367 18.155 26.8367 17.9059V16.1014ZM26.8367 20.1615C26.8367 19.9124 27.0387 19.7104 27.2879 19.7104H29.0924C29.212 19.7104 29.3268 19.7579 29.4114 19.8425C29.496 19.9271 29.5435 20.0419 29.5435 20.1615V21.9661C29.5435 22.0857 29.496 22.2005 29.4114 22.2851C29.3268 22.3697 29.212 22.4172 29.0924 22.4172H27.2879C27.0387 22.4172 26.8367 22.2152 26.8367 21.9661V20.1615ZM23.2277 16.1014C23.2277 15.8522 23.4297 15.6502 23.6788 15.6502H25.4833C25.603 15.6502 25.7178 15.6978 25.8023 15.7823C25.8869 15.8669 25.9345 15.9817 25.9345 16.1014V17.9059C25.9345 18.0255 25.8869 18.1403 25.8023 18.2249C25.7178 18.3095 25.603 18.357 25.4833 18.357H23.6788C23.4297 18.357 23.2277 18.155 23.2277 17.9059V16.1014ZM15.1073 26.9285C13.6715 26.9285 12.2946 26.3582 11.2793 25.3429C10.2641 24.3276 9.69373 22.9507 9.69373 21.5149C9.69373 20.0792 10.2641 18.7022 11.2793 17.687C12.2946 16.6717 13.6715 16.1014 15.1073 16.1014C16.5431 16.1014 17.92 16.6717 18.9353 17.687C19.9505 18.7023 20.5209 20.0792 20.5209 21.5149C20.5209 22.9507 19.9505 24.3277 18.9353 25.3429C17.92 26.3581 16.5431 26.9285 15.1073 26.9285ZM23.2277 21.9661V20.1615C23.2277 19.9124 23.4297 19.7104 23.6788 19.7104H25.4833C25.603 19.7104 25.7178 19.7579 25.8023 19.8425C25.8869 19.9271 25.9345 20.0419 25.9345 20.1615V21.9661C25.9345 22.0857 25.8869 22.2005 25.8023 22.2851C25.7178 22.3697 25.603 22.4172 25.4833 22.4172H23.6788C23.4297 22.4172 23.2277 22.2152 23.2277 21.9661Z" fill="white"/>
<path d="M27.7388 16.5525H28.641V17.4548H27.7388V16.5525Z" fill="white"/>
<path d="M15.107 17.0037C13.9105 17.0037 12.7631 17.479 11.9171 18.325C11.071 19.1711 10.5957 20.3185 10.5957 21.515C10.5957 22.7115 11.071 23.8588 11.9171 24.7049C12.7632 25.551 13.9105 26.0263 15.107 26.0263C16.3035 26.0263 17.4509 25.551 18.297 24.7049C19.143 23.8588 19.6183 22.7115 19.6183 21.515C19.6183 20.3185 19.143 19.1711 18.297 18.325C17.4509 17.479 16.3035 17.0037 15.107 17.0037ZM18.2649 22.4172H16.0093V24.6729H14.2048V22.4172H11.9491V20.6127H14.2048V18.3571H16.0093V20.6127H18.2649V22.4172Z" fill="white"/>
</svg>
