<svg width="17" height="22" viewBox="0 0 17 22" fill="none" xmlns="http://www.w3.org/2000/svg">
<path d="M8.31396 0.727539C6.10976 0.730144 3.99659 1.60839 2.43798 3.16962C0.879376 4.73086 0.0026092 6.8476 8.84521e-06 9.05551C-0.00263113 10.8598 0.58575 12.6152 1.67489 14.0523C1.67489 14.0523 1.90164 14.3513 1.93867 14.3945L8.31396 21.926L14.6923 14.3907C14.7255 14.3506 14.953 14.0523 14.953 14.0523L14.9538 14.05C16.0424 12.6135 16.6305 10.859 16.6279 9.05551C16.6253 6.8476 15.7486 4.73086 14.1899 3.16962C12.6313 1.60839 10.5182 0.730144 8.31396 0.727539ZM8.31396 12.0839C7.71602 12.0839 7.13151 11.9063 6.63433 11.5735C6.13716 11.2407 5.74966 10.7678 5.52084 10.2144C5.29202 9.66105 5.23215 9.05215 5.3488 8.46471C5.46545 7.87727 5.75339 7.33766 6.1762 6.91414C6.59901 6.49062 7.1377 6.2022 7.72416 6.08535C8.31061 5.9685 8.91849 6.02847 9.47091 6.25768C10.0233 6.48689 10.4955 6.87504 10.8277 7.37305C11.1599 7.87106 11.3372 8.45656 11.3372 9.05551C11.3362 9.85837 11.0174 10.6281 10.4506 11.1958C9.88387 11.7635 9.11548 12.0829 8.31396 12.0839Z" fill="#2D2D2D"/>
</svg>
