<svg width="196" height="54" viewBox="0 0 196 54" fill="none" xmlns="http://www.w3.org/2000/svg">
<path d="M10.687 13.6915H13.0265C13.8553 13.6915 14.6841 13.7128 15.5129 13.6915C15.6306 13.6756 15.75 13.7046 15.8473 13.7725C15.9447 13.8405 16.013 13.9426 16.0386 14.0585C16.6353 15.5741 17.1895 17.1109 17.888 18.579C19.3821 21.6511 21.3646 24.4604 23.7582 26.8978C25.8818 29.1007 28.2676 31.0348 30.8622 32.6567C30.9971 32.7631 31.164 32.821 31.3358 32.821C31.5076 32.821 31.6745 32.7631 31.8094 32.6567C35.4245 30.4182 38.6171 27.5606 41.2411 24.2148C42.6776 22.4103 43.9079 20.4508 44.9091 18.373C45.5745 16.9522 46.0931 15.4722 46.6803 14.023C46.7348 13.8904 46.9171 13.7175 47.0355 13.7175C48.6032 13.6962 50.1708 13.7033 51.7407 13.7175C51.8215 13.7291 51.9008 13.7489 51.9775 13.7767C51.8094 14.1414 51.6578 14.4871 51.4921 14.8258C50.145 17.6031 48.5771 20.2677 46.8035 22.794C45.4845 24.6884 44.0542 26.4881 42.605 28.2759C40.4678 30.9304 37.8194 33.1287 34.8167 34.7405C34.7072 34.8122 34.6028 34.8913 34.5042 34.9773C34.6818 35.252 34.8641 35.4959 35.0085 35.7611C35.6953 37.0375 35.2785 38.1717 33.9287 38.6974C32.6817 39.1557 31.3559 39.361 30.0287 39.3013C27.4239 39.2397 24.8002 39.1616 22.2143 38.9129C18.2053 38.5269 14.2105 38.006 10.2134 37.5134C8.20768 37.2766 6.23041 37.2056 4.2934 37.9302C3.53567 38.1996 2.87922 38.6956 2.41322 39.351C2.04276 39.8316 1.84882 40.425 1.86391 41.0316C1.879 41.6382 2.10221 42.2212 2.4961 42.6827C3.42198 43.8667 4.70306 44.5227 6.09307 44.9821C8.51315 45.7848 11.0256 46.0098 13.5522 46.0666C17.476 46.1292 21.3974 45.8383 25.269 45.1975C28.1958 44.7239 31.1227 44.2267 34.0164 43.5802C37.7436 42.7514 41.3879 41.6266 44.7102 39.6612C46.0173 38.8892 47.1989 37.9657 48.0869 36.7083C48.1674 36.597 48.2314 36.4715 48.3095 36.3602C48.5155 36.0595 48.4847 35.8535 48.1319 35.6711C46.5667 34.8731 46.1002 32.7372 46.9645 31.2193C47.3489 30.581 47.9408 30.094 48.6412 29.8397C49.3416 29.5855 50.1081 29.5793 50.8125 29.8222C52.3162 30.3384 53.1544 31.7616 52.92 33.3955C52.8427 34.0109 52.5796 34.588 52.1658 35.05C51.752 35.512 51.2072 35.8369 50.6041 35.9813C50.3555 36.0316 50.1358 36.1758 49.9908 36.3839C49.2165 38.2783 47.7696 39.5286 46.1168 40.5895C43.583 42.2163 40.7888 43.2463 37.9212 44.0988C34.0474 45.2062 30.0994 46.0347 26.1073 46.5781C22.6887 47.1136 19.2394 47.43 15.7805 47.5253C12.7447 47.5797 9.72083 47.4779 6.75611 46.7249C5.1814 46.3247 3.67772 45.7635 2.38007 44.7429C0.959274 43.6157 0.163632 42.1665 0.44779 40.3219C0.746156 38.3801 1.93252 37.1582 3.78665 36.5213C5.73787 35.8487 7.72698 35.7611 9.75161 35.9956C14.3029 36.5212 18.8494 37.0896 23.4054 37.5584C25.9723 37.8237 28.5558 38.032 31.1416 37.7715C31.8579 37.696 32.5648 37.5485 33.2515 37.3311C33.9335 37.1133 33.9761 36.8457 33.5357 36.2939C33.3979 36.1087 33.2389 35.9403 33.0621 35.7919C33.006 35.7468 32.9404 35.715 32.8703 35.699C32.8001 35.683 32.7272 35.6832 32.6571 35.6996C31.4542 36.3768 30.3626 35.8535 29.2709 35.3988C26.0741 34.0657 23.4244 31.9581 21.08 29.4599C18.9331 27.1504 17.0015 24.6497 15.3093 21.9889C13.6569 19.4894 12.1797 16.8783 10.8882 14.1746C10.8361 14.0514 10.7864 13.9259 10.687 13.6915Z" fill="#1C60DA"/>
<path d="M31.1916 18.8586C31.296 19.0671 31.4256 19.262 31.5776 19.4388C32.1064 19.9282 32.6495 20.4018 33.2067 20.8596C33.5027 21.0964 33.5098 21.2764 33.1807 21.4776C32.2335 22.0578 31.0258 21.7144 30.2065 20.6299C29.9237 20.2489 29.6067 19.8946 29.2593 19.5714C28.8378 19.1878 28.3784 19.1973 27.9167 19.5312C27.0216 20.18 26.5361 21.1248 26.1146 22.1004C25.641 23.1992 25.2148 24.3169 24.7578 25.4156C24.5707 25.8726 24.3931 25.9152 24.0876 25.5245C23.0765 24.2316 22.0322 22.9576 21.1158 21.5984C19.4189 19.0875 18.1165 16.3316 17.2536 13.4265C17.1802 13.2531 17.1659 13.0603 17.213 12.878C17.2601 12.6957 17.3659 12.5339 17.5141 12.4177C18.5986 11.3948 19.6453 10.3292 20.7038 9.28251C21.0092 8.9794 21.3076 8.66683 21.6344 8.38741C23.453 6.83164 25.4966 6.69904 27.5804 7.66281C28.9822 8.30927 30.287 9.16648 31.606 9.96212C31.9115 10.1697 32.1798 10.4275 32.3993 10.7246C32.6135 10.9521 32.7442 11.2456 32.77 11.557C32.7958 11.8684 32.7152 12.1794 32.5413 12.439C32.2832 12.8487 32.3424 13.1613 32.6905 13.4383C33.7964 14.3168 34.8998 15.2001 36.0246 16.0549C36.664 16.5404 36.735 16.9003 36.2614 17.5207C36.1695 17.661 36.106 17.8178 36.0744 17.9825C35.937 18.4869 35.8376 19.0055 35.6765 19.498C35.3498 20.4665 34.476 20.7696 33.6117 20.225C32.9652 19.8153 32.3377 19.3725 31.7007 18.9486C31.5799 18.8681 31.4473 18.8042 31.3194 18.7331L31.1916 18.8586ZM22.9178 9.453C22.719 9.5854 22.5299 9.7318 22.3519 9.89108C20.6067 11.6221 20.3202 13.732 20.9311 15.9839C21.2318 17.1016 22.1151 17.7646 23.2707 17.9517C24.7933 18.1885 26.7113 17.3005 27.4502 15.9579C27.6723 15.5596 27.7627 15.1012 27.7083 14.6484C27.4647 13.4071 27.5134 12.1262 27.8504 10.9069C27.8622 10.815 27.8622 10.7219 27.8504 10.6299C27.7041 10.6996 27.588 10.8199 27.5236 10.9685C27.05 12.0744 26.799 13.2181 27.005 14.4258C27.1471 15.2546 26.8084 15.8655 26.1478 16.3202C25.3765 16.8693 24.4375 17.1315 23.4933 17.0613C22.5342 16.9927 21.8854 16.5333 21.6557 15.5979C21.3289 14.279 21.2697 12.9268 21.7362 11.641C22.0156 10.8691 22.5176 10.1776 22.9178 9.453Z" fill="#000D4E"/>
<path d="M34.4333 12.5173C34.4878 12.3965 34.4925 12.3539 34.5115 12.3444C35.5274 11.859 35.7878 10.9615 35.8328 9.94328C35.8778 8.92505 36.2898 8.04889 37.237 7.50899C37.2892 7.48476 37.3359 7.45023 37.3744 7.40747C37.4128 7.36471 37.4422 7.3146 37.4608 7.26018C37.4794 7.20575 37.4868 7.14813 37.4825 7.09078C37.4782 7.03343 37.4624 6.97754 37.436 6.92647C37.2773 6.40314 37.14 5.87272 36.9624 5.26888C38.1771 5.22152 39.2806 5.26888 40.1189 6.19239C40.2068 6.30423 40.3201 6.39349 40.4494 6.45279C40.5787 6.51209 40.7203 6.53972 40.8624 6.53338C42.138 6.5458 43.366 7.01934 44.3197 7.86656C45.1532 8.61044 45.9438 9.40104 46.6877 10.2345C46.7487 10.3076 46.7925 10.3933 46.8158 10.4856C46.8392 10.5778 46.8415 10.6741 46.8226 10.7673C46.0246 12.8796 45.2053 14.9824 44.386 17.0851C44.3143 17.2519 44.2141 17.4049 44.09 17.5374C44.1391 16.4509 43.7878 15.3842 43.1025 14.5395C43.0709 14.4804 43.0274 14.4284 42.9748 14.3867C42.9223 14.345 42.8617 14.3146 42.7969 14.2973C42.732 14.2799 42.6644 14.2761 42.598 14.286C42.5317 14.2959 42.468 14.3194 42.4111 14.3548C41.0211 14.9492 39.605 15.4489 38.0635 15.4749C37.1992 15.4867 36.4532 15.2523 35.9181 14.5277C35.3829 13.8031 34.9069 13.1637 34.4333 12.5173Z" fill="#000D4E"/>
<path d="M12.5554 11.7879C12.5818 10.479 12.7784 9.17908 13.1403 7.92095C13.5483 6.38604 14.2744 4.95403 15.2715 3.71778C16.9291 1.7334 19.0911 0.724644 21.613 0.568357C22.9817 0.48311 24.3669 0.691492 25.7451 0.760164C25.9382 0.778851 26.133 0.758722 26.3182 0.700964C26.6513 0.5561 27.0177 0.504905 27.3778 0.552893C27.7379 0.60088 28.0781 0.746228 28.3617 0.973281C28.7311 1.25034 29.11 1.51555 29.4794 1.79024C29.8752 2.078 30.1425 2.50939 30.2239 2.99189C30.3054 3.4744 30.1945 3.96961 29.9151 4.37134C29.4273 5.08174 28.2575 5.25223 27.4595 4.72654C26.948 4.39029 26.4508 4.01614 25.9724 3.63726C25.78 3.48542 25.6312 3.28523 25.5415 3.05711C25.4088 2.67113 25.1578 2.5622 24.7861 2.51011C23.1285 2.27331 21.4993 2.2591 19.908 2.81321C17.3245 3.71305 15.8493 5.65479 15.0726 8.1767C14.7505 9.22571 14.625 10.3387 14.4451 11.4256C14.4001 11.6979 14.3267 11.7997 14.0544 11.7902C13.576 11.776 13.1024 11.7879 12.5554 11.7879Z" fill="#37BAFF"/>
<path d="M50.0241 11.7878C49.4605 11.7878 48.9703 11.7878 48.4802 11.7878C48.1842 11.7878 48.1818 11.596 48.1652 11.39C48.0729 10.0083 47.7637 8.64985 47.2488 7.36441C45.8399 3.97582 43.1924 2.26139 39.5197 2.37269C38.8897 2.39409 38.2617 2.45579 37.6395 2.55739C37.4355 2.62958 37.2581 2.76162 37.1304 2.93627C36.8652 3.22516 36.6568 3.57562 36.375 3.8361C36.0112 4.14388 35.6267 4.42633 35.2242 4.68147C34.3812 5.2569 33.2185 5.11008 32.6952 4.376C32.4183 3.96596 32.3129 3.46391 32.4014 2.97715C32.4899 2.4904 32.7653 2.05757 33.1688 1.77122C33.5524 1.48469 33.9407 1.21001 34.3291 0.932957C34.5947 0.733644 34.907 0.60571 35.2362 0.561355C35.5653 0.517 35.9003 0.557701 36.2093 0.679581C36.4503 0.759135 36.7068 0.780241 36.9575 0.74115C39.1408 0.407265 41.3099 0.340955 43.4363 1.06082C46.1927 1.99381 47.9355 3.95214 49.0082 6.59244C49.6069 8.0959 49.9518 9.68831 50.0288 11.3047C50.0312 11.4444 50.0241 11.5936 50.0241 11.7878Z" fill="#37BAFF"/>
<path d="M40.3534 19.9125C37.3389 23.2537 34.4002 26.5026 31.9944 30.3174C31.58 29.7491 31.2106 29.2542 30.8506 28.7498C29.7692 27.2217 28.6902 25.692 27.6136 24.1607C27.5374 24.0111 27.4824 23.8517 27.4502 23.6871C27.642 23.7297 27.8812 23.7131 28.0232 23.822C29.1054 24.6532 30.1852 25.4938 31.2342 26.3676C31.606 26.6755 31.857 26.6376 32.1814 26.325C34.2345 24.3146 36.3183 22.3326 38.3382 20.2985C38.916 19.7136 39.508 19.7491 40.3534 19.9125Z" fill="#000D4E"/>
<path d="M75.2613 9.80934V26.6919H71.1488V16.5672L67.3731 26.6919H64.0543L60.2545 16.5431V26.6919H56.1421V9.80934H61L65.7377 21.4973L70.4274 9.80934H75.2613Z" fill="#23297A"/>
<path d="M92.6962 9.80934L86.8523 21.1125V26.6919H82.7398V21.1125L76.8959 9.80934H81.5614L84.8321 16.8798L88.0788 9.80934H92.6962Z" fill="#23297A"/>
<path d="M107.22 15.2445C107.22 16.2225 106.995 17.1203 106.546 17.938C106.097 18.7396 105.408 19.389 104.478 19.886C103.548 20.383 102.394 20.6315 101.015 20.6315H98.4656V26.6919H94.3532V9.80934H101.015C102.362 9.80934 103.5 10.0418 104.43 10.5068C105.36 10.9717 106.057 11.613 106.522 12.4307C106.987 13.2484 107.22 14.1863 107.22 15.2445ZM100.702 17.3608C101.488 17.3608 102.073 17.1764 102.458 16.8077C102.843 16.4389 103.035 15.9179 103.035 15.2445C103.035 14.5711 102.843 14.05 102.458 13.6813C102.073 13.3125 101.488 13.1281 100.702 13.1281H98.4656V17.3608H100.702Z" fill="#23297A"/>
<path d="M113.473 13.1041V16.5191H118.98V19.6936H113.473V23.3972H119.702V26.6919H109.36V9.80934H119.702V13.1041H113.473Z" fill="#23297A"/>
<path d="M134.516 9.80934V13.1041H130.043V26.6919H125.931V13.1041H121.458V9.80934H134.516Z" fill="#23297A"/>
<path d="M149.661 26.8603C148.074 26.8603 146.615 26.4915 145.284 25.754C143.969 25.0165 142.919 23.9904 142.134 22.6757C141.364 21.345 140.979 19.8539 140.979 18.2025C140.979 16.5512 141.364 15.0681 142.134 13.7534C142.919 12.4387 143.969 11.4126 145.284 10.6751C146.615 9.9376 148.074 9.56885 149.661 9.56885C151.248 9.56885 152.699 9.9376 154.014 10.6751C155.345 11.4126 156.387 12.4387 157.14 13.7534C157.91 15.0681 158.295 16.5512 158.295 18.2025C158.295 19.8539 157.91 21.345 157.14 22.6757C156.371 23.9904 155.329 25.0165 154.014 25.754C152.699 26.4915 151.248 26.8603 149.661 26.8603ZM149.661 23.1086C151.008 23.1086 152.082 22.6597 152.884 21.7618C153.701 20.864 154.11 19.6776 154.11 18.2025C154.11 16.7115 153.701 15.525 152.884 14.6432C152.082 13.7454 151.008 13.2965 149.661 13.2965C148.298 13.2965 147.208 13.7374 146.39 14.6192C145.589 15.501 145.188 16.6954 145.188 18.2025C145.188 19.6936 145.589 20.888 146.39 21.7859C147.208 22.6677 148.298 23.1086 149.661 23.1086Z" fill="#79C7E4"/>
<path d="M173.449 15.2445C173.449 16.2225 173.224 17.1203 172.776 17.938C172.327 18.7396 171.637 19.389 170.707 19.886C169.777 20.383 168.623 20.6315 167.244 20.6315H164.695V26.6919H160.583V9.80934H167.244C168.591 9.80934 169.729 10.0418 170.659 10.5068C171.589 10.9717 172.287 11.613 172.752 12.4307C173.216 13.2484 173.449 14.1863 173.449 15.2445ZM166.932 17.3608C167.717 17.3608 168.302 17.1764 168.687 16.8077C169.072 16.4389 169.264 15.9179 169.264 15.2445C169.264 14.5711 169.072 14.05 168.687 13.6813C168.302 13.3125 167.717 13.1281 166.932 13.1281H164.695V17.3608H166.932Z" fill="#79C7E4"/>
<path d="M181.915 9.80934C183.695 9.80934 185.25 10.1621 186.58 10.8675C187.911 11.573 188.937 12.567 189.659 13.8496C190.396 15.1162 190.765 16.5832 190.765 18.2506C190.765 19.902 190.396 21.369 189.659 22.6516C188.937 23.9343 187.903 24.9283 186.556 25.6338C185.226 26.3392 183.678 26.6919 181.915 26.6919H175.59V9.80934H181.915ZM181.65 23.1326C183.206 23.1326 184.416 22.7078 185.282 21.858C186.148 21.0083 186.58 19.8058 186.58 18.2506C186.58 16.6954 186.148 15.485 185.282 14.6192C184.416 13.7534 183.206 13.3205 181.65 13.3205H179.702V23.1326H181.65Z" fill="#79C7E4"/>
<path d="M150.339 18.3709C150.307 18.2148 150.258 18.0624 150.195 17.9163C150.148 17.7975 150.076 17.6896 149.986 17.5996C149.895 17.5095 149.787 17.4392 149.668 17.393C149.548 17.3467 149.421 17.3256 149.293 17.3309C149.166 17.3362 149.04 17.3678 148.925 17.4237C148.819 17.4683 148.719 17.5255 148.627 17.5942C148.218 17.9173 147.773 18.1915 147.301 18.4112C147.091 18.4972 146.904 18.6331 146.758 18.8072C146.612 18.9813 146.511 19.1884 146.463 19.4105C146.414 19.6286 146.441 19.8569 146.541 20.0572C146.64 20.2576 146.804 20.4179 147.007 20.5116C147.257 20.6038 147.522 20.6487 147.789 20.6442C148.22 20.6528 148.636 20.8035 148.973 21.0728C149.047 21.1325 149.127 21.1863 149.21 21.2338C149.335 21.312 149.463 21.383 149.591 21.4564C149.723 21.5011 149.863 21.5181 150.002 21.5063C150.141 21.4945 150.276 21.4541 150.398 21.3877C150.521 21.3221 150.628 21.2318 150.713 21.1225C150.8 21.0126 150.863 20.8861 150.898 20.7507C151.006 20.3606 150.958 19.9439 150.765 19.5881C150.571 19.2027 150.428 18.7935 150.339 18.3709Z" fill="#23297A"/>
<path d="M151.092 17.5966C151.277 17.5148 151.442 17.3955 151.578 17.2463C151.715 17.0971 151.818 16.9213 151.883 16.7299C151.958 16.5399 151.985 16.3339 151.961 16.1308C151.955 16.0295 151.925 15.931 151.874 15.843C151.823 15.7551 151.753 15.6802 151.668 15.6242C151.583 15.5682 151.487 15.5326 151.386 15.5202C151.285 15.5079 151.183 15.5191 151.087 15.5531C150.792 15.6607 150.539 15.8599 150.366 16.1215C150.192 16.383 150.106 16.6933 150.121 17.007C150.121 17.121 150.151 17.2331 150.207 17.3324C150.263 17.4318 150.344 17.515 150.441 17.5742C150.539 17.6334 150.65 17.6666 150.764 17.6705C150.878 17.6744 150.991 17.649 151.092 17.5966Z" fill="#23297A"/>
<path d="M148.48 16.7559C148.532 16.8292 148.6 16.8906 148.677 16.936C148.755 16.9815 148.841 17.01 148.931 17.0196C149.02 17.0292 149.111 17.0198 149.197 16.9919C149.282 16.9639 149.361 16.9182 149.427 16.8577C149.606 16.7001 149.739 16.4972 149.811 16.2704C149.883 16.0745 149.91 15.8648 149.889 15.6571C149.87 15.4499 149.804 15.2497 149.695 15.0722C149.646 14.9813 149.575 14.9033 149.49 14.8448C149.405 14.7863 149.306 14.749 149.204 14.7358C149.101 14.7226 148.997 14.734 148.899 14.769C148.802 14.804 148.714 14.8617 148.644 14.9372C148.459 15.1105 148.332 15.3361 148.279 15.5837C148.219 15.7813 148.207 15.9901 148.242 16.1935C148.277 16.3969 148.358 16.5894 148.48 16.7559Z" fill="#23297A"/>
<path d="M152.058 17.7643C151.814 17.8212 151.591 17.9469 151.416 18.1266C151.24 18.3054 151.119 18.5316 151.068 18.7778C151.036 18.8948 151.036 19.0183 151.067 19.1354C151.099 19.2525 151.162 19.3589 151.25 19.4432C151.337 19.5276 151.445 19.5868 151.563 19.6148C151.681 19.6427 151.805 19.6382 151.921 19.6019C152.131 19.5532 152.325 19.4524 152.485 19.3088C152.646 19.1652 152.768 18.9834 152.839 18.7802C152.854 18.7399 152.87 18.6973 152.884 18.6523C152.927 18.5344 152.936 18.4071 152.911 18.2842C152.886 18.1614 152.828 18.0479 152.742 17.9561C152.657 17.8644 152.548 17.7979 152.427 17.7641C152.306 17.7302 152.179 17.7303 152.058 17.7643Z" fill="#23297A"/>
<path d="M147.571 17.6794C147.741 17.4328 147.82 17.135 147.795 16.8367C147.77 16.5384 147.642 16.258 147.433 16.0431C147.366 15.9751 147.285 15.9228 147.196 15.89C147.106 15.8572 147.01 15.8446 146.915 15.8532C146.82 15.8618 146.728 15.8914 146.646 15.9398C146.563 15.9882 146.493 16.0542 146.439 16.1331C146.377 16.2242 146.321 16.3191 146.271 16.4173C146.193 16.6486 146.181 16.8969 146.236 17.1348C146.29 17.3726 146.41 17.5906 146.581 17.7646C146.648 17.832 146.728 17.8839 146.817 17.9166C146.906 17.9493 147.001 17.962 147.096 17.9539C147.19 17.9458 147.282 17.917 147.364 17.8695C147.446 17.8221 147.517 17.7572 147.571 17.6794Z" fill="#23297A"/>
<path fill-rule="evenodd" clip-rule="evenodd" d="M187.138 34.0965H56.1406V31.9653H187.138V34.0965Z" fill="#23297A"/>
<path fill-rule="evenodd" clip-rule="evenodd" d="M187.138 34.0965H139.344V31.9653H187.138V34.0965Z" fill="#79C7E4"/>
<path d="M190.373 4.3811V4.85423H189.158V8.83742H188.576V4.85423H187.355V4.3811H190.373Z" fill="black"/>
<path d="M195.609 4.41307V8.83742H195.027V5.53834L193.557 8.83742H193.148L191.671 5.53194V8.83742H191.089V4.41307H191.715L193.352 8.07019L194.989 4.41307H195.609Z" fill="black"/>
<path d="M61.5954 42.8387C62.7158 42.8387 63.6949 43.0607 64.5328 43.5049C65.3706 43.949 66.0166 44.5748 66.4708 45.3824C66.9351 46.1798 67.1673 47.1034 67.1673 48.1532C67.1673 49.1929 66.9351 50.1165 66.4708 50.924C66.0166 51.7315 65.3655 52.3574 64.5176 52.8015C63.6798 53.2456 62.7057 53.4677 61.5954 53.4677H57.6133V42.8387H61.5954ZM61.4288 51.2268C62.408 51.2268 63.1701 50.9593 63.7151 50.4243C64.2602 49.8894 64.5328 49.1323 64.5328 48.1532C64.5328 47.1741 64.2602 46.412 63.7151 45.8669C63.1701 45.3218 62.408 45.0493 61.4288 45.0493H60.2024V51.2268H61.4288Z" fill="#2B3078"/>
<path d="M73.6411 53.5737C72.6417 53.5737 71.7232 53.3415 70.8854 52.8772C70.0577 52.4129 69.3965 51.7669 68.9019 50.9391C68.4174 50.1013 68.1751 49.1626 68.1751 48.1229C68.1751 47.0832 68.4174 46.1495 68.9019 45.3218C69.3965 44.4941 70.0577 43.8481 70.8854 43.3837C71.7232 42.9194 72.6417 42.6873 73.6411 42.6873C74.6404 42.6873 75.5539 42.9194 76.3816 43.3837C77.2194 43.8481 77.8755 44.4941 78.3499 45.3218C78.8344 46.1495 79.0767 47.0832 79.0767 48.1229C79.0767 49.1626 78.8344 50.1013 78.3499 50.9391C77.8654 51.7669 77.2093 52.4129 76.3816 52.8772C75.5539 53.3415 74.6404 53.5737 73.6411 53.5737ZM73.6411 51.2117C74.489 51.2117 75.1653 50.929 75.67 50.3638C76.1848 49.7985 76.4422 49.0516 76.4422 48.1229C76.4422 47.1842 76.1848 46.4372 75.67 45.882C75.1653 45.3168 74.489 45.0341 73.6411 45.0341C72.7831 45.0341 72.0967 45.3117 71.5819 45.8669C71.0772 46.4221 70.8248 47.1741 70.8248 48.1229C70.8248 49.0616 71.0772 49.8137 71.5819 50.3789C72.0967 50.9341 72.7831 51.2117 73.6411 51.2117Z" fill="#2B3078"/>
<path d="M80.078 48.138C80.078 47.0883 80.3051 46.1546 80.7594 45.3369C81.2136 44.5092 81.8445 43.8683 82.652 43.414C83.4696 42.9497 84.3932 42.7175 85.4228 42.7175C86.6846 42.7175 87.7646 43.0506 88.663 43.7168C89.5614 44.3831 90.162 45.2915 90.4648 46.4422H87.6183C87.4063 45.9981 87.1035 45.66 86.7098 45.4278C86.3262 45.1956 85.8871 45.0795 85.3925 45.0795C84.5951 45.0795 83.9491 45.3571 83.4545 45.9123C82.9599 46.4675 82.7126 47.2094 82.7126 48.138C82.7126 49.0667 82.9599 49.8086 83.4545 50.3638C83.9491 50.919 84.5951 51.1965 85.3925 51.1965C85.8871 51.1965 86.3262 51.0805 86.7098 50.8483C87.1035 50.6161 87.4063 50.278 87.6183 49.8338H90.4648C90.162 50.9846 89.5614 51.893 88.663 52.5592C87.7646 53.2154 86.6846 53.5434 85.4228 53.5434C84.3932 53.5434 83.4696 53.3163 82.652 52.8621C81.8445 52.3977 81.2136 51.7568 80.7594 50.9391C80.3051 50.1215 80.078 49.1878 80.078 48.138Z" fill="#2B3078"/>
<path d="M99.6966 42.8387V44.913H96.8804V53.4677H94.2912V44.913H91.475V42.8387H99.6966Z" fill="#2B3078"/>
<path d="M106.023 53.5737C105.024 53.5737 104.105 53.3415 103.267 52.8772C102.439 52.4129 101.778 51.7669 101.284 50.9391C100.799 50.1013 100.557 49.1626 100.557 48.1229C100.557 47.0832 100.799 46.1495 101.284 45.3218C101.778 44.4941 102.439 43.8481 103.267 43.3837C104.105 42.9194 105.024 42.6873 106.023 42.6873C107.022 42.6873 107.936 42.9194 108.763 43.3837C109.601 43.8481 110.257 44.4941 110.732 45.3218C111.216 46.1495 111.458 47.0832 111.458 48.1229C111.458 49.1626 111.216 50.1013 110.732 50.9391C110.247 51.7669 109.591 52.4129 108.763 52.8772C107.936 53.3415 107.022 53.5737 106.023 53.5737ZM106.023 51.2117C106.871 51.2117 107.547 50.929 108.052 50.3638C108.567 49.7985 108.824 49.0516 108.824 48.1229C108.824 47.1842 108.567 46.4372 108.052 45.882C107.547 45.3168 106.871 45.0341 106.023 45.0341C105.165 45.0341 104.478 45.3117 103.964 45.8669C103.459 46.4221 103.207 47.1741 103.207 48.1229C103.207 49.0616 103.459 49.8137 103.964 50.3789C104.478 50.9341 105.165 51.2117 106.023 51.2117Z" fill="#2B3078"/>
<path d="M118.319 53.4677L116.109 49.4553H115.488V53.4677H112.899V42.8387H117.244C118.082 42.8387 118.794 42.985 119.379 43.2778C119.975 43.5705 120.419 43.9742 120.712 44.489C121.004 44.9937 121.151 45.559 121.151 46.1848C121.151 46.8914 120.949 47.5223 120.545 48.0775C120.151 48.6327 119.566 49.0263 118.789 49.2585L121.242 53.4677H118.319ZM115.488 47.6232H117.093C117.567 47.6232 117.921 47.5072 118.153 47.275C118.395 47.0428 118.516 46.7148 118.516 46.2908C118.516 45.8871 118.395 45.5691 118.153 45.3369C117.921 45.1048 117.567 44.9887 117.093 44.9887H115.488V47.6232Z" fill="#2B3078"/>
<path d="M132.601 51.5902H128.634L127.998 53.4677H125.288L129.134 42.8387H132.132L135.978 53.4677H133.237L132.601 51.5902ZM131.935 49.5916L130.618 45.7003L129.316 49.5916H131.935Z" fill="#2B3078"/>
<path d="M145.249 46.2605C145.249 46.8763 145.107 47.4416 144.825 47.9564C144.542 48.4611 144.108 48.8699 143.523 49.1828C142.937 49.4957 142.21 49.6522 141.342 49.6522H139.737V53.4677H137.148V42.8387H141.342C142.19 42.8387 142.907 42.985 143.492 43.2778C144.078 43.5705 144.517 43.9742 144.81 44.489C145.102 45.0038 145.249 45.5943 145.249 46.2605ZM141.146 47.593C141.64 47.593 142.009 47.4769 142.251 47.2447C142.493 47.0126 142.614 46.6845 142.614 46.2605C142.614 45.8366 142.493 45.5085 142.251 45.2764C142.009 45.0442 141.64 44.9281 141.146 44.9281H139.737V47.593H141.146Z" fill="#2B3078"/>
<path d="M154.697 46.2605C154.697 46.8763 154.556 47.4416 154.273 47.9564C153.991 48.4611 153.557 48.8699 152.971 49.1828C152.386 49.4957 151.659 49.6522 150.791 49.6522H149.186V53.4677H146.597V42.8387H150.791C151.639 42.8387 152.355 42.985 152.941 43.2778C153.526 43.5705 153.965 43.9742 154.258 44.489C154.551 45.0038 154.697 45.5943 154.697 46.2605ZM150.594 47.593C151.089 47.593 151.457 47.4769 151.699 47.2447C151.941 47.0126 152.063 46.6845 152.063 46.2605C152.063 45.8366 151.941 45.5085 151.699 45.2764C151.457 45.0442 151.089 44.9281 150.594 44.9281H149.186V47.593H150.594Z" fill="#2B3078"/>
</svg>
