<svg width="42" height="41" viewBox="0 0 42 41" fill="none" xmlns="http://www.w3.org/2000/svg">
<rect x="1.46509" y="0.5" width="40" height="40" rx="11.5" fill="white" stroke="#E8ECF4"/>
<path d="M31.4042 29.3401H11.5258C11.4143 29.3401 11.323 29.2489 11.323 29.1375V27.5165C11.323 27.4051 11.4143 27.3139 11.5258 27.3139H31.4042C31.5158 27.3139 31.6071 27.4051 31.6071 27.5165V29.1375C31.6071 29.2489 31.5158 29.3401 31.4042 29.3401ZM31.4042 13.5356H11.5258C11.4143 13.5356 11.323 13.4444 11.323 13.333V11.712C11.323 11.6006 11.4143 11.5094 11.5258 11.5094H31.4042C31.5158 11.5094 31.6071 11.6006 31.6071 11.712V13.333C31.6071 13.4444 31.5158 13.5356 31.4042 13.5356ZM31.4042 21.4379H11.5258C11.4143 21.4379 11.323 21.3467 11.323 21.2352V19.6143C11.323 19.5028 11.4143 19.4116 11.5258 19.4116H31.4042C31.5158 19.4116 31.6071 19.5028 31.6071 19.6143V21.2352C31.6071 21.3467 31.5158 21.4379 31.4042 21.4379Z" fill="#23297A"/>
</svg>
