<svg width="41" height="41" viewBox="0 0 41 41" fill="none" xmlns="http://www.w3.org/2000/svg">
<rect y="0.406982" width="40.07" height="40.07" rx="9" fill="#FBB41A"/>
<path d="M27.1394 13.6912H24.8163C24.8119 13.7057 24.8064 13.7191 24.8021 13.7336C24.7773 13.8157 24.7491 13.8962 24.7203 13.9764C24.7007 14.0306 24.6807 14.0841 24.6595 14.137C24.6265 14.2188 24.5914 14.2993 24.5542 14.3787C24.5333 14.4228 24.5111 14.4659 24.489 14.5096C24.4449 14.5961 24.4002 14.6816 24.3508 14.7653C24.3409 14.7822 24.3295 14.7983 24.3194 14.8151C23.7249 15.7954 22.7826 16.5534 21.6555 16.9308C21.6464 16.934 21.6375 16.9375 21.628 16.9406C21.5286 16.9733 21.4281 17.0015 21.3263 17.0283C21.2772 17.0413 21.2277 17.0539 21.1777 17.0653C21.0944 17.0843 21.0111 17.1024 20.9268 17.1167C20.8469 17.1309 20.7664 17.1418 20.6856 17.1525C20.6216 17.1608 20.5582 17.1702 20.4935 17.176C20.3418 17.1897 20.1894 17.1985 20.035 17.1985C19.8807 17.1985 19.7282 17.1899 19.5765 17.176C19.5116 17.1701 19.4485 17.1608 19.3844 17.1525C19.3036 17.142 19.2229 17.1313 19.1433 17.1167C19.0584 17.1018 18.9751 17.0841 18.8923 17.0653C18.8425 17.0539 18.7933 17.0413 18.7437 17.0283C18.642 17.0017 18.5409 16.9733 18.442 16.9406C18.4325 16.9375 18.4236 16.934 18.4145 16.9308C17.2872 16.5532 16.3451 15.7953 15.7507 14.8151C15.7405 14.7983 15.7294 14.7822 15.7193 14.7653C15.6702 14.682 15.6254 14.5961 15.5811 14.5096C15.5591 14.4664 15.5367 14.4231 15.5158 14.3787C15.4784 14.2995 15.4435 14.2188 15.4106 14.137C15.389 14.0841 15.369 14.0302 15.3497 13.9764C15.3206 13.8962 15.2923 13.8157 15.268 13.7336C15.2636 13.7194 15.2578 13.7057 15.2538 13.6912H12.9306C12.5152 13.6912 12.1777 14.073 12.1777 14.5426V31.7699C12.1763 32.2395 12.5138 32.6219 12.9291 32.6219H27.1395C27.5549 32.6219 27.8923 32.2395 27.8923 31.7701V14.5427C27.8923 14.0728 27.5549 13.6913 27.1395 13.6913L27.1394 13.6912ZM15.982 27.5607L14.7479 29.036C14.6906 29.1044 14.6069 29.1479 14.516 29.157C14.5043 29.1582 14.4932 29.1586 14.4818 29.1586C14.4025 29.1586 14.3259 29.1319 14.2638 29.0828L13.7192 28.6491C13.5734 28.5331 13.5529 28.3246 13.6732 28.183C13.7927 28.0416 14.0095 28.0215 14.1552 28.1386L14.4325 28.3598L15.4493 27.1441C15.5676 27.0015 15.7845 26.9799 15.931 27.095C16.0782 27.2099 16.101 27.4184 15.9821 27.5607L15.982 27.5607ZM15.982 23.2274L14.7479 24.7027C14.6906 24.7711 14.6069 24.8146 14.516 24.8237C14.5043 24.825 14.4932 24.8253 14.4818 24.8253C14.4025 24.8253 14.3259 24.7986 14.2638 24.7495L13.7192 24.3158C13.5734 24.1998 13.5529 23.9913 13.6732 23.8497C13.7927 23.7087 14.0095 23.6882 14.1552 23.8053L14.4325 24.0265L15.4493 22.8108C15.5676 22.6682 15.7845 22.647 15.931 22.7617C16.0782 22.8766 16.101 23.0852 15.9821 23.2274L15.982 23.2274ZM15.982 18.8934L14.7479 20.3696C14.6909 20.438 14.6069 20.4815 14.516 20.4906C14.5043 20.4918 14.4932 20.4922 14.4818 20.4922C14.4025 20.4922 14.3259 20.4655 14.2638 20.4164L13.7192 19.9827C13.5734 19.8667 13.5529 19.6582 13.6732 19.5166C13.7927 19.3756 14.0095 19.3551 14.1552 19.4722L14.4325 19.6934L15.4493 18.4774C15.5676 18.3351 15.7845 18.3135 15.931 18.4282C16.0782 18.5426 16.101 18.7512 15.9821 18.8934L15.982 18.8934ZM26.1318 28.4213H17.8607C17.6718 28.4213 17.5182 28.2733 17.5182 28.0905C17.5182 27.9077 17.6718 27.7597 17.8607 27.7597H26.1318C26.3207 27.7597 26.4744 27.9077 26.4744 28.0905C26.4746 28.2731 26.3213 28.4213 26.132 28.4213H26.1318ZM26.1318 24.088H17.8607C17.6718 24.088 17.5182 23.94 17.5182 23.7572C17.5182 23.5745 17.6718 23.4264 17.8607 23.4264H26.1318C26.3207 23.4264 26.4744 23.5745 26.4744 23.7572C26.4746 23.9398 26.3213 24.088 26.132 24.088H26.1318ZM26.1318 19.7547H17.8607C17.6718 19.7547 17.5182 19.6067 17.5182 19.4239C17.5182 19.2412 17.6718 19.0931 17.8607 19.0931H26.1318C26.3207 19.0931 26.4744 19.2412 26.4744 19.4239C26.4746 19.6062 26.3213 19.7547 26.132 19.7547H26.1318Z" fill="white"/>
<path d="M16.2026 14.2337C16.2136 14.2549 16.2235 14.2768 16.2349 14.2977C16.2808 14.3829 16.3312 14.4659 16.3826 14.5471C16.3955 14.5675 16.4076 14.588 16.4206 14.608C16.4764 14.6925 16.5353 14.7746 16.5971 14.8548C16.6065 14.8669 16.616 14.8795 16.6258 14.8918C16.6939 14.9779 16.7646 15.0619 16.8391 15.1428L16.8395 15.1431C17.309 15.6511 17.905 16.044 18.571 16.2813C18.5884 16.2876 18.6056 16.2939 18.6233 16.2997C18.7133 16.3304 18.8052 16.358 18.8976 16.3827C18.9376 16.3932 18.9778 16.403 19.0183 16.4125C19.0965 16.4315 19.1747 16.4487 19.254 16.4632C19.32 16.475 19.3872 16.4841 19.4543 16.4927C19.514 16.5009 19.5734 16.51 19.6334 16.5155C19.7658 16.5272 19.899 16.5351 20.0346 16.5351C20.1701 16.5351 20.3033 16.5272 20.4357 16.5155C20.4962 16.51 20.5552 16.5006 20.6148 16.4927C20.682 16.4836 20.7491 16.475 20.8151 16.4632C20.8944 16.4487 20.973 16.4315 21.0508 16.4125C21.0914 16.403 21.1313 16.3932 21.1715 16.3827C21.2638 16.3576 21.3559 16.3304 21.4458 16.2997C21.4636 16.2938 21.4807 16.2876 21.4981 16.2813C22.1638 16.044 22.7598 15.6511 23.2297 15.1431L23.23 15.1428C23.3047 15.0623 23.3754 14.9781 23.4433 14.8918C23.4528 14.8797 23.4626 14.8674 23.4721 14.8548C23.5338 14.7746 23.5927 14.6925 23.6485 14.608C23.6618 14.588 23.6741 14.5675 23.6866 14.5471C23.7385 14.4657 23.7883 14.3829 23.8343 14.2977C23.8457 14.2765 23.8555 14.2549 23.8665 14.2337C24.0146 13.9472 24.1298 13.642 24.2056 13.3205C24.2759 13.0236 24.3164 12.7159 24.3164 12.3988C24.3164 10.1181 22.3955 8.26196 20.0346 8.26196C17.6737 8.26196 15.7527 10.1181 15.7527 12.3988C15.7527 12.7159 15.7932 13.0236 15.8635 13.3205C15.9393 13.6419 16.0549 13.9476 16.2026 14.2337H16.2026ZM19.692 9.79813C19.692 9.61536 19.8457 9.46732 20.0346 9.46732C20.2235 9.46732 20.3771 9.61536 20.3771 9.79813V12.2271L21.6611 13.1001C21.816 13.2053 21.8528 13.4116 21.7441 13.5613C21.6776 13.6525 21.5716 13.702 21.4636 13.702C21.3955 13.702 21.3264 13.6827 21.2668 13.6415L19.8374 12.6698C19.7462 12.6077 19.692 12.5066 19.692 12.3991L19.692 9.79813Z" fill="white"/>
</svg>
