<svg width="41" height="41" viewBox="0 0 41 41" fill="none" xmlns="http://www.w3.org/2000/svg">
<rect x="0.5" y="0.5" width="40" height="40" rx="11.5" fill="white" stroke="#E8ECF4"/>
<path d="M26.9159 25.8684L26.308 25.2686C25.8384 24.8012 25.5736 24.1663 25.5719 23.5036V20.8106C25.4734 20.8163 25.374 20.8192 25.2738 20.8192C24.309 20.8191 23.3635 20.5491 22.5442 20.0396C21.7249 19.5301 21.0646 18.8015 20.6379 17.9362C20.2112 17.0709 20.0352 16.1034 20.1299 15.1433C20.2245 14.1832 20.5859 13.2687 21.1732 12.5033C21.1084 12.479 21.0436 12.456 20.9778 12.4339C20.8055 12.3782 20.6551 12.2694 20.5482 12.1231C20.4413 11.9769 20.3834 11.8006 20.3826 11.6194C20.3882 11.2064 20.2338 10.8072 19.9517 10.5055C19.6696 10.2038 19.2817 10.0229 18.8693 10.0007C18.6609 9.99439 18.4535 10.03 18.2592 10.1053C18.0649 10.1807 17.8877 10.2943 17.7381 10.4394C17.5885 10.5845 17.4696 10.7582 17.3884 10.9502C17.3072 11.1421 17.2654 11.3484 17.2654 11.5568V11.6194C17.2649 11.8006 17.2071 11.9769 17.1002 12.1232C16.9934 12.2695 16.843 12.3783 16.6706 12.4339C15.3323 12.8837 14.169 13.7425 13.345 14.889C12.521 16.0354 12.0778 17.4117 12.078 18.8236V23.496C12.0763 24.1586 11.8115 24.7935 11.3418 25.261L10.7339 25.8684C10.2671 26.3376 10.0035 26.9716 10 27.6334H27.6494C27.646 26.9716 27.3825 26.3377 26.9159 25.8684ZM16.7467 27.9225C16.7467 28.4735 16.9656 29.0019 17.3552 29.3915C17.7448 29.7811 18.2732 30 18.8242 30C19.3752 30 19.9036 29.7811 20.2933 29.3915C20.6829 29.0019 20.9017 28.4735 20.9017 27.9225H16.7467Z" fill="#23297A"/>
<path d="M30.4482 15.5414C30.4483 16.8041 29.9663 18.0193 29.1007 18.9387C28.2351 19.8581 27.0512 20.4124 25.7907 20.4884C25.6922 20.4941 25.5929 20.4971 25.4926 20.4974C24.5124 20.4975 23.5541 20.2069 22.7391 19.6624C21.924 19.1178 21.2887 18.3439 20.9135 17.4383C20.5383 16.5327 20.4401 15.5362 20.6313 14.5748C20.8225 13.6134 21.2945 12.7302 21.9876 12.0371C22.6807 11.3439 23.5637 10.8719 24.5251 10.6806C25.4865 10.4893 26.483 10.5874 27.3887 10.9625C28.2943 11.3376 29.0683 11.9729 29.6129 12.7879C30.1575 13.6029 30.4482 14.5611 30.4482 15.5414Z" fill="#EC2B2B"/>
</svg>
