<svg width="18" height="19" viewBox="0 0 18 19" fill="none" xmlns="http://www.w3.org/2000/svg">
<path d="M10.0778 5.45321C12.1971 5.45321 13.1011 6.35869 13.1011 8.48157H15.1166C15.1166 5.22609 13.3278 3.43431 10.0778 3.43431V5.45321ZM13.5263 10.9477C13.3327 10.7714 13.0782 10.6773 12.8167 10.6854C12.5551 10.6935 12.307 10.8031 12.1246 10.9911L9.713 13.4753C9.13253 13.3643 7.96556 12.9999 6.76432 11.7996C5.56308 10.5954 5.19928 9.42339 5.09145 8.84598L7.56951 6.42935C7.75737 6.24677 7.86694 5.99814 7.87502 5.73607C7.88311 5.474 7.78909 5.21906 7.61285 5.02521L3.8892 0.923807C3.71289 0.729343 3.46784 0.611386 3.2061 0.594988C2.94436 0.57859 2.68655 0.665042 2.48742 0.835985L0.300595 2.71457C0.126365 2.88973 0.0223736 3.12285 0.00834617 3.36971C-0.00677012 3.62207 -0.294987 9.60004 4.33261 14.2375C8.36967 18.2803 13.4266 18.5761 14.8193 18.5761C15.0228 18.5761 15.1478 18.57 15.1811 18.568C15.4275 18.5542 15.6601 18.4496 15.8341 18.2743L17.7085 16.0827C17.8793 15.8834 17.9658 15.6252 17.9496 15.363C17.9334 15.1009 17.8158 14.8553 17.6218 14.6786L13.5263 10.9477Z" fill="#2D2D2D"/>
</svg>
