<svg width="41" height="41" viewBox="0 0 41 41" fill="none" xmlns="http://www.w3.org/2000/svg">
<rect x="0.265625" y="0.126465" width="40.07" height="40.07" rx="9" fill="#2BC999"/>
<path d="M13.5335 10.6877V8.88321C13.5335 8.56077 13.3615 8.26291 13.0824 8.1018C12.8033 7.94068 12.4593 7.94068 12.1801 8.1018C11.901 8.26291 11.729 8.56078 11.729 8.88321V10.6877C11.729 11.0102 11.901 11.308 12.1801 11.4691C12.4593 11.6303 12.8033 11.6303 13.0824 11.4691C13.3615 11.308 13.5335 11.0102 13.5335 10.6877Z" fill="white"/>
<path d="M26.1652 11.59C26.4045 11.59 26.6341 11.4949 26.8032 11.3258C26.9724 11.1566 27.0675 10.927 27.0675 10.6877V8.88321C27.0675 8.56077 26.8955 8.26291 26.6163 8.1018C26.3372 7.94068 25.9932 7.94068 25.7141 8.1018C25.4349 8.26291 25.2629 8.56078 25.2629 8.88321V10.6877C25.2629 10.927 25.358 11.1566 25.5272 11.3258C25.6963 11.4949 25.9259 11.59 26.1652 11.59Z" fill="white"/>
<path d="M28.4208 32.342C29.4977 32.342 30.5304 31.9143 31.2917 31.1528C32.0532 30.3915 32.481 29.3588 32.481 28.2819C32.481 27.205 32.0532 26.1722 31.2917 25.4109C30.5304 24.6494 29.4977 24.2217 28.4208 24.2217C27.3439 24.2217 26.3111 24.6495 25.5498 25.4109C24.7883 26.1722 24.3606 27.205 24.3606 28.2819C24.3606 29.3588 24.7884 30.3915 25.5498 31.1528C26.3111 31.9143 27.3439 32.342 28.4208 32.342ZM26.1651 27.8307H27.9696V25.5751C27.9696 25.3259 28.1717 25.1239 28.4208 25.1239C28.6699 25.1239 28.8719 25.3259 28.8719 25.5751V28.2819C28.8719 28.4015 28.8244 28.5163 28.7398 28.6009C28.6552 28.6855 28.5404 28.733 28.4208 28.733H26.1651C25.916 28.733 25.714 28.531 25.714 28.2819C25.714 28.0327 25.916 27.8307 26.1651 27.8307Z" fill="white"/>
<path d="M9.02238 9.7854C8.78312 9.7854 8.55352 9.88046 8.38435 10.0496C8.21518 10.2188 8.12012 10.4484 8.12012 10.6877V13.3945H30.6767V10.6877C30.6767 10.4484 30.5816 10.2188 30.4125 10.0496C30.2433 9.88046 30.0137 9.7854 29.7744 9.7854H27.9699V10.6877C27.9699 11.3323 27.6259 11.9281 27.0676 12.2505C26.5094 12.5727 25.8214 12.5727 25.2631 12.2505C24.7048 11.928 24.3608 11.3323 24.3608 10.6877V9.7854H14.436V10.6877C14.436 11.3323 14.092 11.9281 13.5337 12.2505C12.9754 12.5727 12.2874 12.5727 11.7292 12.2505C11.1709 11.928 10.8269 11.3323 10.8269 10.6877V9.7854H9.02238Z" fill="white"/>
<path d="M27.5186 20.6125H28.4208V21.5148H27.5186V20.6125Z" fill="white"/>
<path d="M23.9097 16.5525H24.8119V17.4548H23.9097V16.5525Z" fill="white"/>
<path d="M23.9097 20.6125H24.8119V21.5148H23.9097V20.6125Z" fill="white"/>
<path d="M28.421 23.3195C29.2057 23.3193 29.9791 23.5064 30.6767 23.8653V14.2966H8.12012V27.8306C8.12012 28.0698 8.21518 28.2994 8.38435 28.4686C8.55352 28.6378 8.78312 28.7328 9.02238 28.7328H23.4813V28.2817C23.4813 26.9694 24.0011 25.7107 24.9267 24.7806C25.8525 23.8508 27.1088 23.3253 28.4211 23.3193L28.421 23.3195ZM26.6165 16.1014C26.6165 15.8522 26.8185 15.6502 27.0676 15.6502H28.8722C28.9918 15.6502 29.1066 15.6978 29.1912 15.7823C29.2758 15.8669 29.3233 15.9817 29.3233 16.1014V17.9059C29.3233 18.0255 29.2758 18.1403 29.1912 18.2249C29.1066 18.3095 28.9918 18.357 28.8722 18.357H27.0676C26.8185 18.357 26.6165 18.155 26.6165 17.9059V16.1014ZM26.6165 20.1615C26.6165 19.9124 26.8185 19.7104 27.0676 19.7104H28.8722C28.9918 19.7104 29.1066 19.7579 29.1912 19.8425C29.2758 19.9271 29.3233 20.0419 29.3233 20.1615V21.9661C29.3233 22.0857 29.2758 22.2005 29.1912 22.2851C29.1066 22.3697 28.9918 22.4172 28.8722 22.4172H27.0676C26.8185 22.4172 26.6165 22.2152 26.6165 21.9661V20.1615ZM23.0075 16.1014C23.0075 15.8522 23.2095 15.6502 23.4586 15.6502H25.2631C25.3827 15.6502 25.4975 15.6978 25.5821 15.7823C25.6667 15.8669 25.7142 15.9817 25.7142 16.1014V17.9059C25.7142 18.0255 25.6667 18.1403 25.5821 18.2249C25.4975 18.3095 25.3827 18.357 25.2631 18.357H23.4586C23.2095 18.357 23.0075 18.155 23.0075 17.9059V16.1014ZM14.8871 26.9285C13.4513 26.9285 12.0743 26.3582 11.0591 25.3429C10.0439 24.3276 9.47351 22.9507 9.47351 21.5149C9.47351 20.0792 10.0438 18.7022 11.0591 17.687C12.0744 16.6717 13.4513 16.1014 14.8871 16.1014C16.3229 16.1014 17.6998 16.6717 18.7151 17.687C19.7303 18.7023 20.3007 20.0792 20.3007 21.5149C20.3007 22.9507 19.7303 24.3277 18.7151 25.3429C17.6998 26.3581 16.3229 26.9285 14.8871 26.9285ZM23.0075 21.9661V20.1615C23.0075 19.9124 23.2095 19.7104 23.4586 19.7104H25.2631C25.3827 19.7104 25.4975 19.7579 25.5821 19.8425C25.6667 19.9271 25.7142 20.0419 25.7142 20.1615V21.9661C25.7142 22.0857 25.6667 22.2005 25.5821 22.2851C25.4975 22.3697 25.3827 22.4172 25.2631 22.4172H23.4586C23.2095 22.4172 23.0075 22.2152 23.0075 21.9661Z" fill="white"/>
<path d="M27.5186 16.5525H28.4208V17.4548H27.5186V16.5525Z" fill="white"/>
<path d="M14.8868 17.0037C13.6903 17.0037 12.5429 17.479 11.6969 18.325C10.8508 19.1711 10.3755 20.3185 10.3755 21.515C10.3755 22.7115 10.8508 23.8588 11.6969 24.7049C12.5429 25.551 13.6903 26.0263 14.8868 26.0263C16.0833 26.0263 17.2307 25.551 18.0767 24.7049C18.9228 23.8588 19.3981 22.7115 19.3981 21.515C19.3981 20.3185 18.9228 19.1711 18.0767 18.325C17.2307 17.479 16.0833 17.0037 14.8868 17.0037ZM18.0447 22.4172H15.7891V24.6729H13.9845V22.4172H11.7289V20.6127H13.9845V18.3571H15.7891V20.6127H18.0447V22.4172Z" fill="white"/>
</svg>
