<svg width="32" height="21" viewBox="0 0 32 21" fill="none" xmlns="http://www.w3.org/2000/svg">
<path d="M19.3129 0.394287C16.2866 0.394287 13.6462 2.04205 12.2408 4.49147C11.6843 4.24061 11.0738 4.098 10.4235 4.098C8.19135 4.098 6.35344 5.74993 6.03697 7.8942C3.05996 8.39436 0.794006 10.9787 0.794006 14.098C0.794006 17.5754 3.61288 20.3943 7.09028 20.3943H25.6089C29.0863 20.3943 31.9052 17.5754 31.9052 14.098C31.9052 11.2598 30.0301 8.85426 27.4492 8.06781C27.2024 3.78947 23.6527 0.394472 19.3129 0.394472L19.3129 0.394287ZM16.2804 7.061C16.4816 7.04059 16.6824 7.10337 16.8361 7.23461L19.4286 9.45672C19.5774 9.58564 19.6691 9.76855 19.6834 9.9649C19.6973 10.1615 19.633 10.3555 19.5038 10.5043C19.3749 10.6531 19.1922 10.7449 18.9956 10.7588C18.7993 10.773 18.6053 10.7084 18.4564 10.5795L17.0906 9.41046V16.6903C17.0963 17.0817 16.7413 17.4426 16.3499 17.4426C15.9585 17.4426 15.6035 17.0817 15.6092 16.6903V9.41046L14.2433 10.5795C14.0945 10.7084 13.9005 10.773 13.7041 10.7588C13.5075 10.7449 13.3249 10.6531 13.196 10.5043C13.0668 10.3555 13.0025 10.1615 13.0164 9.9649C13.0306 9.76855 13.1223 9.58564 13.2712 9.45672L15.8637 7.23461C15.9812 7.13463 16.127 7.07392 16.2804 7.061H16.2804Z" fill="#868686"/>
</svg>
