<svg width="41" height="41" viewBox="0 0 41 41" fill="none" xmlns="http://www.w3.org/2000/svg">
<rect width="40.07" height="40.07" rx="9" fill="#EF5858"/>
<path d="M7.56523 12H23.4348C24.856 12 26 13.0231 26 14.2937V25.706C26 26.9769 24.8558 27.9998 23.4348 27.9998L7.56523 28C6.14395 28 5 26.9769 5 25.7063V14.294C5 13.0231 6.14424 12.0002 7.56523 12.0002V12Z" fill="white"/>
<path d="M33.6027 12.0005C33.3956 12.0084 33.1932 12.082 33.0134 12.2152L27 16.6917V24.102L33.0134 28.5785V28.5782C33.4022 28.867 33.881 28.8667 34.2694 28.5775C34.6582 28.288 34.8976 27.7535 34.8982 27.1748V13.6188C34.8976 13.1806 34.7594 12.7612 34.5154 12.4565C34.2714 12.1517 33.9423 11.9872 33.6027 12.0008L33.6027 12.0005Z" fill="white"/>
</svg>
