<svg width="22" height="21" viewBox="0 0 22 21" fill="none" xmlns="http://www.w3.org/2000/svg">
<path d="M10.5534 11.7421C9.44061 11.7421 8.66331 12.5701 8.66331 13.7555C8.66331 15.0009 9.51114 16.0142 10.5534 16.0142C11.5956 16.0142 12.4435 15.0009 12.4435 13.7555C12.4435 12.5699 11.6662 11.7421 10.5534 11.7421ZM10.5534 15.4327C9.83167 15.4327 9.24453 14.6801 9.24453 13.7555C9.24453 12.8989 9.77064 12.3236 10.5534 12.3236C11.3361 12.3236 11.8622 12.8987 11.8622 13.7555C11.8622 14.6803 11.2752 15.4327 10.5534 15.4327ZM15.1065 6.51787C15.1065 7.05389 15.5424 7.4898 16.0785 7.4898C16.6145 7.4898 17.0504 7.05392 17.0504 6.51787C17.0504 5.98182 16.6145 5.54595 16.0785 5.54595C15.5424 5.54595 15.1065 5.98202 15.1065 6.51787ZM16.4689 6.51787C16.4689 6.73317 16.2938 6.90854 16.0783 6.90854C15.863 6.90854 15.6876 6.73337 15.6876 6.51787C15.6876 6.30257 15.8627 6.12721 16.0783 6.12721C16.2938 6.12721 16.4689 6.30257 16.4689 6.51787ZM19.9448 1.47104H19.3998V0.581224C19.3998 0.260702 19.1391 0 18.8186 0H2.14326C1.82274 0 1.56203 0.260713 1.56203 0.581224V1.47084H1.16245C0.521228 1.47084 0 1.99227 0 2.63328V15.5127C0 16.1539 0.521436 16.6752 1.16245 16.6752H4.97588C5.76206 19.0039 7.96255 20.6875 10.553 20.6875C13.1437 20.6875 15.3444 19.0042 16.1307 16.6752H19.9445C20.5857 16.6752 21.1069 16.1537 21.1069 15.5127V2.63328C21.1071 1.99222 20.5857 1.47084 19.9446 1.47084L19.9448 1.47104ZM2.14321 0.581224H18.8186V1.47084L2.14321 1.47104V0.581224ZM10.553 20.1064C9.53066 20.1064 8.5784 19.8108 7.76747 19.3082C7.76747 19.3064 7.76828 19.3054 7.76828 19.3036C7.76828 19.1509 7.78288 18.8476 7.80518 18.7211C8.06143 17.3014 9.63708 17.0895 10.5532 17.0895C11.3279 17.0895 13.148 17.2642 13.3244 18.882C13.3282 18.9167 13.3364 19.0268 13.3378 19.3088C12.5271 19.811 11.5752 20.1063 10.553 20.1063L10.553 20.1064ZM13.9093 18.9066C13.9072 18.8732 13.9048 18.8432 13.9026 18.8191C13.7445 17.3723 12.4926 16.5083 10.5532 16.5083C8.68527 16.5083 7.47533 17.2773 7.23306 18.619C7.21948 18.6956 7.20914 18.802 7.20225 18.9105C6.00897 17.9364 5.24485 16.4554 5.24485 14.7985C5.24485 14.5773 5.25844 14.3553 5.2856 14.1384C5.61403 11.4883 7.87877 9.48994 10.5534 9.48994C11.2379 9.48994 11.9042 9.61848 12.5339 9.87149C14.5556 10.6851 15.862 12.6185 15.862 14.7983C15.8618 16.453 15.0999 17.9322 13.9092 18.9067L13.9093 18.9066ZM20.526 7.8437H16.0807C15.3494 7.8437 14.7544 7.24867 14.7544 6.5174C14.7544 5.78614 15.3494 5.19111 16.0807 5.19111H20.526V7.8437ZM20.526 4.6103H16.0807C15.0291 4.6103 14.1731 5.46602 14.1731 6.51782C14.1731 7.56962 15.0289 8.42534 16.0807 8.42534H20.526V15.5133C20.526 15.8338 20.2653 16.0945 19.9447 16.0945H16.2945C16.3886 15.6769 16.4431 15.244 16.4431 14.7986C16.4431 12.3804 14.9938 10.2347 12.7506 9.33255C12.052 9.05115 11.3126 8.90883 10.5531 8.90883C7.58553 8.90883 5.07306 11.1263 4.70873 14.0672C4.67852 14.3076 4.66372 14.554 4.66372 14.7991C4.66372 15.2447 4.71805 15.6773 4.81232 16.095L1.16232 16.0948C0.841802 16.0948 0.5811 15.834 0.5811 15.5135L0.580898 2.63411C0.580898 2.31359 0.84161 2.05289 1.16212 2.05289H19.9446C20.2651 2.05289 20.5258 2.3136 20.5258 2.63411L20.526 4.6103Z" fill="#23297A"/>
</svg>
